<svg xmlns="http://www.w3.org/2000/svg" xmlns:xlink="http://www.w3.org/1999/xlink" width="1366" zoomAndPan="magnify" viewBox="0 0 1024.5 576" height="768" preserveAspectRatio="xMidYMid meet" version="1.0"><defs><clipPath id="02207088ce"><path d="M 204.003906 0.140625 L 820.203125 0.140625 L 820.203125 575.859375 L 204.003906 575.859375 Z M 204.003906 0.140625 " clip-rule="nonzero"/></clipPath><clipPath id="9652a0e30e"><path d="M 0 0.140625 L 213.375 0.140625 L 213.375 575.859375 L 0 575.859375 Z M 0 0.140625 " clip-rule="nonzero"/></clipPath><clipPath id="25e569a9fb"><path d="M 810.832031 0.140625 L 1024 0.140625 L 1024 575.859375 L 810.832031 575.859375 Z M 810.832031 0.140625 " clip-rule="nonzero"/></clipPath><clipPath id="0d57d64f8a"><path d="M 389.628906 334 L 442 334 L 442 342.800781 L 389.628906 342.800781 Z M 389.628906 334 " clip-rule="nonzero"/></clipPath><clipPath id="06f0c4274d"><path d="M 389.628906 321 L 442.851562 321 L 442.851562 330 L 389.628906 330 Z M 389.628906 321 " clip-rule="nonzero"/></clipPath><clipPath id="bd6ae3f92a"><path d="M 389.628906 308 L 442.851562 308 L 442.851562 318 L 389.628906 318 Z M 389.628906 308 " clip-rule="nonzero"/></clipPath><clipPath id="80b27dd2aa"><path d="M 389.628906 296 L 442.851562 296 L 442.851562 306 L 389.628906 306 Z M 389.628906 296 " clip-rule="nonzero"/></clipPath><clipPath id="706179e6a0"><path d="M 390 283 L 442.851562 283 L 442.851562 293 L 390 293 Z M 390 283 " clip-rule="nonzero"/></clipPath><clipPath id="16a43bddad"><path d="M 390 271 L 442.851562 271 L 442.851562 280 L 390 280 Z M 390 271 " clip-rule="nonzero"/></clipPath><clipPath id="6f88a78249"><path d="M 390 258 L 442.851562 258 L 442.851562 268 L 390 268 Z M 390 258 " clip-rule="nonzero"/></clipPath><clipPath id="81d4615495"><path d="M 390 245 L 442.851562 245 L 442.851562 255 L 390 255 Z M 390 245 " clip-rule="nonzero"/></clipPath><clipPath id="ea3cbcb401"><path d="M 390 233.355469 L 442.851562 233.355469 L 442.851562 242 L 390 242 Z M 390 233.355469 " clip-rule="nonzero"/></clipPath><clipPath id="75a446d518"><path d="M 457.191406 161.03125 L 466 161.03125 L 466 214 L 457.191406 214 Z M 457.191406 161.03125 " clip-rule="nonzero"/></clipPath><clipPath id="12bb237ef8"><path d="M 470 161.03125 L 479 161.03125 L 479 214 L 470 214 Z M 470 161.03125 " clip-rule="nonzero"/></clipPath><clipPath id="c34179e092"><path d="M 482 161.03125 L 492 161.03125 L 492 214 L 482 214 Z M 482 161.03125 " clip-rule="nonzero"/></clipPath><clipPath id="792903be33"><path d="M 494 161.03125 L 504 161.03125 L 504 214 L 494 214 Z M 494 161.03125 " clip-rule="nonzero"/></clipPath><clipPath id="91108df9a9"><path d="M 507 161.03125 L 517 161.03125 L 517 214 L 507 214 Z M 507 161.03125 " clip-rule="nonzero"/></clipPath><clipPath id="64e4adf764"><path d="M 520 161.03125 L 529 161.03125 L 529 214 L 520 214 Z M 520 161.03125 " clip-rule="nonzero"/></clipPath><clipPath id="9be98c65a5"><path d="M 532 161.03125 L 542 161.03125 L 542 214 L 532 214 Z M 532 161.03125 " clip-rule="nonzero"/></clipPath><clipPath id="b5de93e35d"><path d="M 545 161.03125 L 555 161.03125 L 555 214.257812 L 545 214.257812 Z M 545 161.03125 " clip-rule="nonzero"/></clipPath><clipPath id="f4fefb4cc5"><path d="M 557 162 L 566.636719 162 L 566.636719 214.257812 L 557 214.257812 Z M 557 162 " clip-rule="nonzero"/></clipPath><clipPath id="9774ee0832"><path d="M 580.886719 334 L 634 334 L 634 342.800781 L 580.886719 342.800781 Z M 580.886719 334 " clip-rule="nonzero"/></clipPath><clipPath id="eedb0a707c"><path d="M 581 233.355469 L 634.113281 233.355469 L 634.113281 242 L 581 242 Z M 581 233.355469 " clip-rule="nonzero"/></clipPath><clipPath id="94d2b0a8d2"><path d="M 457.191406 357.292969 L 466 357.292969 L 466 410 L 457.191406 410 Z M 457.191406 357.292969 " clip-rule="nonzero"/></clipPath><clipPath id="8755228583"><path d="M 470 357.292969 L 479 357.292969 L 479 410 L 470 410 Z M 470 357.292969 " clip-rule="nonzero"/></clipPath><clipPath id="bccbdc12fc"><path d="M 482 357.292969 L 492 357.292969 L 492 410 L 482 410 Z M 482 357.292969 " clip-rule="nonzero"/></clipPath><clipPath id="92bf5d9bf4"><path d="M 494 357.292969 L 504 357.292969 L 504 410 L 494 410 Z M 494 357.292969 " clip-rule="nonzero"/></clipPath><clipPath id="d38f8f1f1c"><path d="M 507 357.292969 L 517 357.292969 L 517 410.519531 L 507 410.519531 Z M 507 357.292969 " clip-rule="nonzero"/></clipPath><clipPath id="a4b046d59f"><path d="M 520 357.292969 L 529 357.292969 L 529 410.519531 L 520 410.519531 Z M 520 357.292969 " clip-rule="nonzero"/></clipPath><clipPath id="8e787273a3"><path d="M 532 357.292969 L 542 357.292969 L 542 410.519531 L 532 410.519531 Z M 532 357.292969 " clip-rule="nonzero"/></clipPath><clipPath id="a6a351566d"><path d="M 545 358 L 555 358 L 555 410.519531 L 545 410.519531 Z M 545 358 " clip-rule="nonzero"/></clipPath><clipPath id="abc5aa2771"><path d="M 557 358 L 566.636719 358 L 566.636719 410.519531 L 557 410.519531 Z M 557 358 " clip-rule="nonzero"/></clipPath><clipPath id="5f55560507"><path d="M 442.867188 213.171875 L 566.625 213.171875 L 566.625 303 L 442.867188 303 Z M 442.867188 213.171875 " clip-rule="nonzero"/></clipPath><clipPath id="b77d425fc1"><path d="M 523.246094 220.757812 C 506.527344 217.609375 503.902344 218.957031 502.480469 218.507812 C 501.730469 218.285156 501.054688 217.683594 500.832031 217.085938 C 500.605469 216.335938 500.832031 214.984375 501.503906 214.460938 C 502.554688 213.488281 505.253906 213.785156 508.175781 213.785156 C 513.5 213.710938 527.667969 214.460938 530.816406 215.808594 C 531.867188 216.261719 532.316406 216.710938 532.539062 217.308594 C 532.765625 217.910156 532.539062 218.957031 532.238281 219.558594 C 531.941406 220.007812 531.492188 220.308594 530.816406 220.53125 C 529.542969 220.90625 527.367188 220.683594 524.894531 220.53125 C 520.921875 220.234375 511.324219 219.632812 508.925781 218.058594 C 507.878906 217.460938 507.351562 216.558594 507.351562 215.808594 C 507.351562 215.136719 508.101562 214.011719 508.925781 213.636719 C 510.050781 213.113281 511.851562 213.710938 513.875 214.234375 C 517.621094 215.136719 527.144531 217.984375 529.015625 219.785156 C 529.617188 220.382812 529.839844 221.058594 529.691406 221.582031 C 529.617188 222.257812 529.015625 223.082031 528.191406 223.457031 C 526.542969 224.132812 523.019531 223.304688 519.796875 222.933594 C 515.375 222.40625 506.226562 221.730469 504.128906 220.082031 C 503.230469 219.410156 502.855469 218.359375 503.078125 217.757812 C 503.230469 217.160156 504.953125 216.183594 505.253906 216.410156 C 505.628906 216.710938 505.101562 219.933594 504.578125 220.082031 C 504.277344 220.234375 503.378906 219.484375 503.230469 218.957031 C 503.003906 218.433594 503.230469 217.308594 503.605469 216.859375 C 503.980469 216.484375 504.429688 216.335938 505.328125 216.335938 C 508.101562 216.410156 521.59375 220.15625 523.46875 222.03125 C 524.070312 222.632812 524.144531 223.230469 524.070312 223.757812 C 523.917969 224.28125 523.621094 224.878906 522.945312 225.179688 C 521.671875 225.855469 518.523438 225.40625 515.824219 225.253906 C 512.300781 225.105469 505.554688 225.179688 503.605469 223.980469 C 502.703125 223.382812 502.179688 222.332031 502.328125 221.65625 C 502.480469 220.984375 503.453125 220.234375 504.429688 220.082031 C 506.226562 219.785156 511.324219 221.582031 512.824219 222.707031 C 513.574219 223.382812 514.023438 224.207031 513.949219 224.878906 C 513.949219 225.554688 513.273438 226.453125 512.449219 226.753906 C 510.875 227.203125 505.328125 225.480469 504.355469 224.207031 C 503.753906 223.457031 503.828125 222.257812 504.203125 221.65625 C 504.652344 221.058594 505.703125 220.53125 506.601562 220.683594 C 508.25 220.90625 510.5 224.28125 512.824219 225.78125 C 515.222656 227.28125 519.644531 228.179688 520.769531 229.753906 C 521.371094 230.578125 521.371094 231.925781 520.996094 232.527344 C 520.621094 233.125 519.796875 233.351562 518.746094 233.351562 C 515.972656 233.351562 506.304688 230.351562 504.429688 228.554688 C 503.679688 227.804688 503.453125 226.828125 503.605469 226.15625 C 503.753906 225.554688 504.203125 224.957031 505.027344 224.65625 C 507.203125 223.757812 516.273438 225.480469 518.898438 225.179688 C 520.019531 225.03125 521.296875 224.804688 521.296875 224.507812 C 521.296875 223.605469 503.078125 221.359375 502.253906 219.484375 C 502.03125 218.882812 503.003906 217.535156 503.453125 217.609375 C 504.128906 217.609375 504.578125 220.832031 505.929688 222.40625 C 507.800781 224.65625 513.5 226.828125 514.472656 228.703125 C 515 229.679688 514.847656 230.878906 514.472656 231.476562 C 514.25 232.003906 513.574219 232.378906 513.050781 232.527344 C 512.601562 232.675781 512.074219 232.078125 511.402344 232.300781 C 509.226562 233.050781 505.179688 238.824219 500.679688 242.871094 C 493.785156 249.09375 481.191406 257.863281 473.769531 265.4375 C 467.546875 271.734375 460.648438 280.878906 458.328125 284.476562 C 457.5 285.75 457.652344 286.5 456.902344 287.324219 C 456.078125 288.148438 454.503906 289.425781 453.378906 289.273438 C 452.179688 289.050781 449.929688 286.800781 449.929688 285.824219 C 449.929688 285 451.65625 283.503906 451.953125 283.652344 C 452.402344 283.878906 451.804688 287.324219 451.355469 289.050781 C 450.980469 290.699219 450.457031 292.574219 449.554688 293.847656 C 448.730469 294.972656 447.53125 296.320312 446.480469 296.394531 C 445.582031 296.472656 444.160156 295.496094 443.632812 294.746094 C 443.183594 293.996094 443.484375 293.097656 443.484375 292.046875 C 443.484375 290.398438 443.332031 287.851562 443.707031 285.824219 C 444.007812 283.726562 444.382812 280.503906 445.433594 279.605469 C 446.183594 279.003906 447.605469 279.003906 448.28125 279.304688 C 448.882812 279.605469 449.480469 280.429688 449.554688 281.253906 C 449.707031 282.753906 447.53125 287.398438 447.082031 287.398438 C 446.78125 287.324219 446.558594 284.851562 446.707031 284.851562 C 446.78125 284.777344 447.15625 286.351562 447.679688 286.875 C 448.355469 287.550781 449.253906 288.074219 450.378906 288.449219 C 451.804688 288.972656 454.578125 288.375 455.851562 289.050781 C 456.828125 289.574219 457.652344 290.546875 457.800781 291.296875 C 457.953125 291.898438 457.652344 292.574219 457.351562 293.097656 C 456.976562 293.546875 456.453125 293.996094 455.777344 294.070312 C 454.804688 294.222656 452.855469 293.996094 451.65625 292.871094 C 449.628906 290.847656 446.707031 282.527344 447.308594 280.128906 C 447.605469 279.003906 448.957031 277.953125 449.554688 278.03125 C 450.230469 278.179688 450.828125 279.980469 451.128906 281.027344 C 451.429688 282.078125 451.355469 282.753906 451.429688 284.328125 C 451.503906 287.851562 452.554688 299.542969 450.753906 301.792969 C 449.929688 302.769531 448.132812 302.917969 447.382812 302.617188 C 446.707031 302.316406 446.40625 301.492188 446.183594 300.519531 C 445.734375 298.792969 445.582031 294.671875 446.480469 292.871094 C 447.230469 291.523438 448.507812 291.148438 450.304688 290.25 C 453.976562 288.375 461.023438 286.050781 468.070312 284.175781 C 478.042969 281.554688 494.457031 278.328125 504.804688 277.054688 C 512.300781 276.15625 518.148438 276.15625 524.21875 276.082031 C 529.617188 276.007812 537.113281 275.855469 539.511719 276.53125 C 540.335938 276.753906 540.710938 276.90625 541.011719 277.355469 C 541.3125 277.804688 541.386719 278.554688 541.160156 279.078125 C 540.9375 279.527344 540.335938 279.980469 539.886719 280.128906 C 539.363281 280.277344 538.613281 280.277344 538.164062 279.980469 C 537.636719 279.679688 537.113281 278.78125 537.113281 278.179688 C 537.1875 277.65625 537.488281 276.980469 538.085938 276.753906 C 539.136719 276.230469 541.160156 276.832031 543.632812 277.207031 C 548.582031 278.105469 563.425781 280.652344 565.75 282.976562 C 566.5 283.800781 566.574219 285.078125 566.273438 285.601562 C 566.046875 286.125 564.699219 286.5 564.175781 286.277344 C 563.648438 286.050781 562.824219 284.476562 563.050781 283.878906 C 563.273438 283.351562 564.925781 282.753906 565.523438 282.902344 C 566.046875 283.050781 566.5 283.800781 566.574219 284.25 C 566.648438 284.777344 566.421875 285.527344 566.046875 285.902344 C 565.675781 286.277344 565.300781 286.351562 564.398438 286.351562 C 560.953125 286.425781 541.835938 282.304688 538.613281 280.128906 C 537.5625 279.527344 537.039062 278.78125 537.113281 278.179688 C 537.1875 277.582031 538.238281 276.605469 538.910156 276.53125 C 539.585938 276.378906 540.9375 277.207031 541.234375 277.730469 C 541.386719 278.105469 541.3125 278.703125 541.160156 279.078125 C 540.9375 279.453125 540.636719 279.902344 539.886719 280.128906 C 537.5625 280.878906 529.839844 279.527344 524.367188 279.527344 C 518.371094 279.605469 512.75 279.679688 505.402344 280.578125 C 495.207031 281.929688 478.867188 285.226562 469.195312 288 C 462.523438 289.875 455.476562 292.648438 452.628906 294.070312 C 451.578125 294.597656 451.054688 294.597656 450.53125 295.347656 C 449.855469 296.320312 450.230469 299.542969 449.554688 299.84375 C 448.957031 300.070312 447.757812 299.320312 447.15625 298.269531 C 445.957031 296.097656 447.230469 288.75 446.855469 284.851562 C 446.558594 281.851562 444.90625 278.703125 445.582031 276.980469 C 446.03125 275.78125 447.382812 274.804688 448.28125 274.65625 C 449.105469 274.582031 449.855469 275.105469 450.605469 275.929688 C 452.328125 277.878906 453.605469 286.726562 455.253906 288.972656 C 456.003906 289.949219 457.277344 290.023438 457.652344 290.699219 C 457.953125 291.222656 457.875 291.972656 457.652344 292.496094 C 457.425781 293.023438 457.050781 293.621094 456.378906 293.847656 C 455.402344 294.296875 453.527344 294.148438 451.953125 293.996094 C 450.082031 293.847656 447.230469 293.546875 445.808594 292.722656 C 444.832031 292.121094 444.308594 291.296875 443.859375 290.398438 C 443.332031 289.425781 442.882812 288.300781 442.882812 286.949219 C 442.957031 285 443.859375 281.253906 445.058594 280.054688 C 445.734375 279.304688 447.007812 278.855469 447.757812 279.078125 C 448.507812 279.304688 449.253906 280.203125 449.554688 281.253906 C 450.15625 283.578125 448.882812 291.75 447.457031 292.796875 C 446.855469 293.246094 445.507812 293.023438 445.058594 292.421875 C 444.308594 291.148438 446.480469 284.550781 447.679688 282.753906 C 448.355469 281.851562 449.105469 281.179688 449.929688 281.101562 C 450.828125 281.027344 452.105469 282.152344 453.078125 282.976562 C 454.128906 283.953125 456.152344 286.050781 455.925781 286.574219 C 455.703125 286.949219 453.453125 287.027344 453.230469 286.574219 C 452.855469 285.976562 454.277344 284.25 455.550781 282.378906 C 458.328125 278.105469 464.773438 269.410156 471.21875 262.664062 C 479.316406 254.191406 495.433594 242.347656 501.429688 236.5 C 504.128906 233.800781 505.253906 231.703125 507.128906 230.203125 C 508.476562 229.078125 509.824219 228.027344 511.101562 227.730469 C 511.925781 227.503906 512.976562 227.65625 513.574219 227.953125 C 514.097656 228.253906 514.550781 228.703125 514.773438 229.230469 C 514.921875 229.828125 514.847656 230.953125 514.472656 231.476562 C 514.25 232.003906 513.574219 232.378906 513.050781 232.527344 C 512.601562 232.675781 512.074219 232.601562 511.402344 232.300781 C 509.75 231.703125 506.003906 228.777344 504.128906 226.90625 C 502.628906 225.40625 501.503906 223.832031 500.753906 222.183594 C 500.15625 220.757812 499.480469 218.808594 499.929688 217.683594 C 500.378906 216.636719 501.730469 215.734375 503.003906 215.511719 C 504.878906 215.136719 507.800781 216.558594 510.5 217.308594 C 513.800781 218.285156 518.671875 219.410156 521.445312 220.757812 C 523.46875 221.730469 525.792969 222.78125 526.242188 224.054688 C 526.691406 225.179688 526.242188 226.753906 525.34375 227.730469 C 523.996094 229.152344 520.246094 230.054688 517.171875 230.351562 C 513.5 230.726562 506.902344 229.828125 504.953125 228.777344 C 504.128906 228.328125 503.753906 227.804688 503.605469 227.203125 C 503.453125 226.605469 503.679688 225.628906 504.128906 225.253906 C 504.730469 224.65625 506.078125 224.582031 507.503906 224.730469 C 510.425781 225.105469 518.445312 227.730469 520.320312 229.453125 C 521.070312 230.128906 521.519531 230.953125 521.371094 231.628906 C 521.21875 232.300781 520.246094 233.277344 519.195312 233.425781 C 517.324219 233.726562 512.75 230.878906 510.199219 229.152344 C 507.878906 227.730469 505.027344 225.707031 504.355469 224.207031 C 503.902344 223.304688 503.902344 222.257812 504.203125 221.65625 C 504.578125 221.058594 505.253906 220.683594 506.078125 220.609375 C 507.652344 220.457031 512.226562 221.808594 513.273438 223.007812 C 513.875 223.757812 514.023438 225.179688 513.648438 225.855469 C 513.347656 226.378906 512.375 226.753906 511.402344 226.753906 C 509.527344 226.753906 504.429688 225.105469 503.230469 223.757812 C 502.480469 223.007812 502.179688 221.808594 502.480469 221.207031 C 502.703125 220.609375 503.378906 220.308594 504.429688 220.082031 C 507.503906 219.410156 521.671875 220.15625 523.46875 222.03125 C 524.144531 222.78125 524.070312 224.054688 523.695312 224.65625 C 523.320312 225.105469 522.644531 225.253906 521.59375 225.332031 C 518.597656 225.332031 506.378906 221.507812 504.128906 219.933594 C 503.453125 219.484375 503.15625 219.035156 503.078125 218.582031 C 503.003906 218.058594 503.230469 217.234375 503.605469 216.859375 C 503.980469 216.484375 505.027344 216.109375 505.328125 216.335938 C 505.703125 216.710938 505.027344 220.15625 504.578125 220.234375 C 504.203125 220.308594 502.929688 218.808594 503.003906 218.210938 C 503.003906 217.535156 503.679688 216.785156 504.804688 216.410156 C 508.175781 215.285156 525.71875 217.535156 528.566406 219.484375 C 529.464844 220.082031 529.839844 220.984375 529.691406 221.582031 C 529.617188 222.332031 528.640625 223.382812 527.667969 223.53125 C 526.242188 223.757812 523.996094 221.808594 521.519531 221.058594 C 518.148438 219.933594 510.949219 219.484375 508.925781 218.058594 C 507.953125 217.382812 507.425781 216.558594 507.351562 215.808594 C 507.351562 215.210938 507.578125 214.3125 508.402344 213.859375 C 511.027344 212.4375 527.667969 214.460938 530.816406 215.808594 C 531.867188 216.261719 532.316406 216.710938 532.539062 217.308594 C 532.765625 217.910156 532.539062 218.957031 532.238281 219.558594 C 531.941406 220.007812 531.414062 220.308594 530.816406 220.53125 C 530.140625 220.683594 529.617188 220.609375 528.34375 220.53125 C 524.292969 220.382812 505.929688 219.933594 502.480469 218.507812 C 501.503906 218.132812 501.054688 217.683594 500.832031 217.085938 C 500.605469 216.335938 500.753906 215.0625 501.503906 214.460938 C 502.703125 213.335938 506.601562 213.113281 509.675781 213.1875 C 513.800781 213.335938 521.59375 215.210938 523.996094 216.335938 C 524.894531 216.710938 525.34375 217.085938 525.644531 217.609375 C 525.867188 218.058594 526.019531 218.734375 525.71875 219.183594 C 525.417969 219.785156 523.246094 220.757812 523.246094 220.757812 " clip-rule="nonzero"/></clipPath><clipPath id="bae43fae64"><path d="M 0.867188 0.171875 L 124.625 0.171875 L 124.625 90 L 0.867188 90 Z M 0.867188 0.171875 " clip-rule="nonzero"/></clipPath><clipPath id="c6587318a0"><path d="M 81.246094 7.757812 C 64.527344 4.609375 61.902344 5.957031 60.480469 5.507812 C 59.730469 5.285156 59.054688 4.683594 58.832031 4.085938 C 58.605469 3.335938 58.832031 1.984375 59.503906 1.460938 C 60.554688 0.488281 63.253906 0.785156 66.175781 0.785156 C 71.5 0.710938 85.667969 1.460938 88.816406 2.808594 C 89.867188 3.261719 90.316406 3.710938 90.539062 4.308594 C 90.765625 4.910156 90.539062 5.957031 90.238281 6.558594 C 89.941406 7.007812 89.492188 7.308594 88.816406 7.53125 C 87.542969 7.90625 85.367188 7.683594 82.894531 7.53125 C 78.921875 7.234375 69.324219 6.632812 66.925781 5.058594 C 65.878906 4.460938 65.351562 3.558594 65.351562 2.808594 C 65.351562 2.136719 66.101562 1.011719 66.925781 0.636719 C 68.050781 0.113281 69.851562 0.710938 71.875 1.234375 C 75.621094 2.136719 85.144531 4.984375 87.015625 6.785156 C 87.617188 7.382812 87.839844 8.058594 87.691406 8.582031 C 87.617188 9.257812 87.015625 10.082031 86.191406 10.457031 C 84.542969 11.132812 81.019531 10.304688 77.796875 9.933594 C 73.375 9.40625 64.226562 8.730469 62.128906 7.082031 C 61.230469 6.410156 60.855469 5.359375 61.078125 4.757812 C 61.230469 4.160156 62.953125 3.183594 63.253906 3.410156 C 63.628906 3.710938 63.101562 6.933594 62.578125 7.082031 C 62.277344 7.234375 61.378906 6.484375 61.230469 5.957031 C 61.003906 5.433594 61.230469 4.308594 61.605469 3.859375 C 61.980469 3.484375 62.429688 3.335938 63.328125 3.335938 C 66.101562 3.410156 79.59375 7.15625 81.46875 9.03125 C 82.070312 9.632812 82.144531 10.230469 82.070312 10.757812 C 81.917969 11.28125 81.621094 11.878906 80.945312 12.179688 C 79.671875 12.855469 76.523438 12.40625 73.824219 12.253906 C 70.300781 12.105469 63.554688 12.179688 61.605469 10.980469 C 60.703125 10.382812 60.179688 9.332031 60.328125 8.65625 C 60.480469 7.984375 61.453125 7.234375 62.429688 7.082031 C 64.226562 6.785156 69.324219 8.582031 70.824219 9.707031 C 71.574219 10.382812 72.023438 11.207031 71.949219 11.878906 C 71.949219 12.554688 71.273438 13.453125 70.449219 13.753906 C 68.875 14.203125 63.328125 12.480469 62.355469 11.207031 C 61.753906 10.457031 61.828125 9.257812 62.203125 8.65625 C 62.652344 8.058594 63.703125 7.53125 64.601562 7.683594 C 66.25 7.90625 68.5 11.28125 70.824219 12.78125 C 73.222656 14.28125 77.644531 15.179688 78.769531 16.753906 C 79.371094 17.578125 79.371094 18.925781 78.996094 19.527344 C 78.621094 20.125 77.796875 20.351562 76.746094 20.351562 C 73.972656 20.351562 64.304688 17.351562 62.429688 15.554688 C 61.679688 14.804688 61.453125 13.828125 61.605469 13.15625 C 61.753906 12.554688 62.203125 11.957031 63.027344 11.65625 C 65.203125 10.757812 74.273438 12.480469 76.898438 12.179688 C 78.019531 12.03125 79.296875 11.804688 79.296875 11.507812 C 79.296875 10.605469 61.078125 8.359375 60.253906 6.484375 C 60.03125 5.882812 61.003906 4.535156 61.453125 4.609375 C 62.128906 4.609375 62.578125 7.832031 63.929688 9.40625 C 65.800781 11.65625 71.5 13.828125 72.472656 15.703125 C 73 16.679688 72.847656 17.878906 72.472656 18.476562 C 72.25 19.003906 71.574219 19.378906 71.050781 19.527344 C 70.601562 19.675781 70.074219 19.078125 69.402344 19.300781 C 67.226562 20.050781 63.179688 25.824219 58.679688 29.871094 C 51.785156 36.09375 39.191406 44.863281 31.769531 52.4375 C 25.546875 58.734375 18.648438 67.878906 16.328125 71.476562 C 15.5 72.75 15.652344 73.5 14.902344 74.324219 C 14.078125 75.148438 12.503906 76.425781 11.378906 76.273438 C 10.179688 76.050781 7.929688 73.800781 7.929688 72.824219 C 7.929688 72 9.65625 70.503906 9.953125 70.652344 C 10.402344 70.878906 9.804688 74.324219 9.355469 76.050781 C 8.980469 77.699219 8.457031 79.574219 7.554688 80.847656 C 6.730469 81.972656 5.53125 83.320312 4.480469 83.394531 C 3.582031 83.472656 2.160156 82.496094 1.632812 81.746094 C 1.183594 80.996094 1.484375 80.097656 1.484375 79.046875 C 1.484375 77.398438 1.332031 74.851562 1.707031 72.824219 C 2.007812 70.726562 2.382812 67.503906 3.433594 66.605469 C 4.183594 66.003906 5.605469 66.003906 6.28125 66.304688 C 6.882812 66.605469 7.480469 67.429688 7.554688 68.253906 C 7.707031 69.753906 5.53125 74.398438 5.082031 74.398438 C 4.78125 74.324219 4.558594 71.851562 4.707031 71.851562 C 4.78125 71.777344 5.15625 73.351562 5.679688 73.875 C 6.355469 74.550781 7.253906 75.074219 8.378906 75.449219 C 9.804688 75.972656 12.578125 75.375 13.851562 76.050781 C 14.828125 76.574219 15.652344 77.546875 15.800781 78.296875 C 15.953125 78.898438 15.652344 79.574219 15.351562 80.097656 C 14.976562 80.546875 14.453125 80.996094 13.777344 81.070312 C 12.804688 81.222656 10.855469 80.996094 9.65625 79.871094 C 7.628906 77.847656 4.707031 69.527344 5.308594 67.128906 C 5.605469 66.003906 6.957031 64.953125 7.554688 65.03125 C 8.230469 65.179688 8.828125 66.980469 9.128906 68.027344 C 9.429688 69.078125 9.355469 69.753906 9.429688 71.328125 C 9.503906 74.851562 10.554688 86.542969 8.753906 88.792969 C 7.929688 89.769531 6.132812 89.917969 5.382812 89.617188 C 4.707031 89.316406 4.40625 88.492188 4.183594 87.519531 C 3.734375 85.792969 3.582031 81.671875 4.480469 79.871094 C 5.230469 78.523438 6.507812 78.148438 8.304688 77.25 C 11.976562 75.375 19.023438 73.050781 26.070312 71.175781 C 36.042969 68.554688 52.457031 65.328125 62.804688 64.054688 C 70.300781 63.15625 76.148438 63.15625 82.21875 63.082031 C 87.617188 63.007812 95.113281 62.855469 97.511719 63.53125 C 98.335938 63.753906 98.710938 63.90625 99.011719 64.355469 C 99.3125 64.804688 99.386719 65.554688 99.160156 66.078125 C 98.9375 66.527344 98.335938 66.980469 97.886719 67.128906 C 97.363281 67.277344 96.613281 67.277344 96.164062 66.980469 C 95.636719 66.679688 95.113281 65.78125 95.113281 65.179688 C 95.1875 64.65625 95.488281 63.980469 96.085938 63.753906 C 97.136719 63.230469 99.160156 63.832031 101.632812 64.207031 C 106.582031 65.105469 121.425781 67.652344 123.75 69.976562 C 124.5 70.800781 124.574219 72.078125 124.273438 72.601562 C 124.046875 73.125 122.699219 73.5 122.175781 73.277344 C 121.648438 73.050781 120.824219 71.476562 121.050781 70.878906 C 121.273438 70.351562 122.925781 69.753906 123.523438 69.902344 C 124.046875 70.050781 124.5 70.800781 124.574219 71.25 C 124.648438 71.777344 124.421875 72.527344 124.046875 72.902344 C 123.675781 73.277344 123.300781 73.351562 122.398438 73.351562 C 118.953125 73.425781 99.835938 69.304688 96.613281 67.128906 C 95.5625 66.527344 95.039062 65.78125 95.113281 65.179688 C 95.1875 64.582031 96.238281 63.605469 96.910156 63.53125 C 97.585938 63.378906 98.9375 64.207031 99.234375 64.730469 C 99.386719 65.105469 99.3125 65.703125 99.160156 66.078125 C 98.9375 66.453125 98.636719 66.902344 97.886719 67.128906 C 95.5625 67.878906 87.839844 66.527344 82.367188 66.527344 C 76.371094 66.605469 70.75 66.679688 63.402344 67.578125 C 53.207031 68.929688 36.867188 72.226562 27.195312 75 C 20.523438 76.875 13.476562 79.648438 10.628906 81.070312 C 9.578125 81.597656 9.054688 81.597656 8.53125 82.347656 C 7.855469 83.320312 8.230469 86.542969 7.554688 86.84375 C 6.957031 87.070312 5.757812 86.320312 5.15625 85.269531 C 3.957031 83.097656 5.230469 75.75 4.855469 71.851562 C 4.558594 68.851562 2.90625 65.703125 3.582031 63.980469 C 4.03125 62.78125 5.382812 61.804688 6.28125 61.65625 C 7.105469 61.582031 7.855469 62.105469 8.605469 62.929688 C 10.328125 64.878906 11.605469 73.726562 13.253906 75.972656 C 14.003906 76.949219 15.277344 77.023438 15.652344 77.699219 C 15.953125 78.222656 15.875 78.972656 15.652344 79.496094 C 15.425781 80.023438 15.050781 80.621094 14.378906 80.847656 C 13.402344 81.296875 11.527344 81.148438 9.953125 80.996094 C 8.082031 80.847656 5.230469 80.546875 3.808594 79.722656 C 2.832031 79.121094 2.308594 78.296875 1.859375 77.398438 C 1.332031 76.425781 0.882812 75.300781 0.882812 73.949219 C 0.957031 72 1.859375 68.253906 3.058594 67.054688 C 3.734375 66.304688 5.007812 65.855469 5.757812 66.078125 C 6.507812 66.304688 7.253906 67.203125 7.554688 68.253906 C 8.15625 70.578125 6.882812 78.75 5.457031 79.796875 C 4.855469 80.246094 3.507812 80.023438 3.058594 79.421875 C 2.308594 78.148438 4.480469 71.550781 5.679688 69.753906 C 6.355469 68.851562 7.105469 68.179688 7.929688 68.101562 C 8.828125 68.027344 10.105469 69.152344 11.078125 69.976562 C 12.128906 70.953125 14.152344 73.050781 13.925781 73.574219 C 13.703125 73.949219 11.453125 74.027344 11.230469 73.574219 C 10.855469 72.976562 12.277344 71.25 13.550781 69.378906 C 16.328125 65.105469 22.773438 56.410156 29.21875 49.664062 C 37.316406 41.191406 53.433594 29.347656 59.429688 23.5 C 62.128906 20.800781 63.253906 18.703125 65.128906 17.203125 C 66.476562 16.078125 67.824219 15.027344 69.101562 14.730469 C 69.925781 14.503906 70.976562 14.65625 71.574219 14.953125 C 72.097656 15.253906 72.550781 15.703125 72.773438 16.230469 C 72.921875 16.828125 72.847656 17.953125 72.472656 18.476562 C 72.25 19.003906 71.574219 19.378906 71.050781 19.527344 C 70.601562 19.675781 70.074219 19.601562 69.402344 19.300781 C 67.75 18.703125 64.003906 15.777344 62.128906 13.90625 C 60.628906 12.40625 59.503906 10.832031 58.753906 9.183594 C 58.15625 7.757812 57.480469 5.808594 57.929688 4.683594 C 58.378906 3.636719 59.730469 2.734375 61.003906 2.511719 C 62.878906 2.136719 65.800781 3.558594 68.5 4.308594 C 71.800781 5.285156 76.671875 6.410156 79.445312 7.757812 C 81.46875 8.730469 83.792969 9.78125 84.242188 11.054688 C 84.691406 12.179688 84.242188 13.753906 83.34375 14.730469 C 81.996094 16.152344 78.246094 17.054688 75.171875 17.351562 C 71.5 17.726562 64.902344 16.828125 62.953125 15.777344 C 62.128906 15.328125 61.753906 14.804688 61.605469 14.203125 C 61.453125 13.605469 61.679688 12.628906 62.128906 12.253906 C 62.730469 11.65625 64.078125 11.582031 65.503906 11.730469 C 68.425781 12.105469 76.445312 14.730469 78.320312 16.453125 C 79.070312 17.128906 79.519531 17.953125 79.371094 18.628906 C 79.21875 19.300781 78.246094 20.277344 77.195312 20.425781 C 75.324219 20.726562 70.75 17.878906 68.199219 16.152344 C 65.878906 14.730469 63.027344 12.707031 62.355469 11.207031 C 61.902344 10.304688 61.902344 9.257812 62.203125 8.65625 C 62.578125 8.058594 63.253906 7.683594 64.078125 7.609375 C 65.652344 7.457031 70.226562 8.808594 71.273438 10.007812 C 71.875 10.757812 72.023438 12.179688 71.648438 12.855469 C 71.347656 13.378906 70.375 13.753906 69.402344 13.753906 C 67.527344 13.753906 62.429688 12.105469 61.230469 10.757812 C 60.480469 10.007812 60.179688 8.808594 60.480469 8.207031 C 60.703125 7.609375 61.378906 7.308594 62.429688 7.082031 C 65.503906 6.410156 79.671875 7.15625 81.46875 9.03125 C 82.144531 9.78125 82.070312 11.054688 81.695312 11.65625 C 81.320312 12.105469 80.644531 12.253906 79.59375 12.332031 C 76.597656 12.332031 64.378906 8.507812 62.128906 6.933594 C 61.453125 6.484375 61.15625 6.035156 61.078125 5.582031 C 61.003906 5.058594 61.230469 4.234375 61.605469 3.859375 C 61.980469 3.484375 63.027344 3.109375 63.328125 3.335938 C 63.703125 3.710938 63.027344 7.15625 62.578125 7.234375 C 62.203125 7.308594 60.929688 5.808594 61.003906 5.210938 C 61.003906 4.535156 61.679688 3.785156 62.804688 3.410156 C 66.175781 2.285156 83.71875 4.535156 86.566406 6.484375 C 87.464844 7.082031 87.839844 7.984375 87.691406 8.582031 C 87.617188 9.332031 86.640625 10.382812 85.667969 10.53125 C 84.242188 10.757812 81.996094 8.808594 79.519531 8.058594 C 76.148438 6.933594 68.949219 6.484375 66.925781 5.058594 C 65.953125 4.382812 65.425781 3.558594 65.351562 2.808594 C 65.351562 2.210938 65.578125 1.3125 66.402344 0.859375 C 69.027344 -0.5625 85.667969 1.460938 88.816406 2.808594 C 89.867188 3.261719 90.316406 3.710938 90.539062 4.308594 C 90.765625 4.910156 90.539062 5.957031 90.238281 6.558594 C 89.941406 7.007812 89.414062 7.308594 88.816406 7.53125 C 88.140625 7.683594 87.617188 7.609375 86.34375 7.53125 C 82.292969 7.382812 63.929688 6.933594 60.480469 5.507812 C 59.503906 5.132812 59.054688 4.683594 58.832031 4.085938 C 58.605469 3.335938 58.753906 2.0625 59.503906 1.460938 C 60.703125 0.335938 64.601562 0.113281 67.675781 0.1875 C 71.800781 0.335938 79.59375 2.210938 81.996094 3.335938 C 82.894531 3.710938 83.34375 4.085938 83.644531 4.609375 C 83.867188 5.058594 84.019531 5.734375 83.71875 6.183594 C 83.417969 6.785156 81.246094 7.757812 81.246094 7.757812 " clip-rule="nonzero"/></clipPath><clipPath id="5a367d0765"><rect x="0" width="125" y="0" height="90"/></clipPath><clipPath id="f3eeb645c2"><path d="M 566.886719 280.675781 L 581.464844 280.675781 L 581.464844 297.640625 L 566.886719 297.640625 Z M 566.886719 280.675781 " clip-rule="nonzero"/></clipPath><clipPath id="c5384fbf68"><path d="M 579.84375 282.527344 C 580.441406 288.972656 579.765625 290.25 579.542969 290.175781 C 579.316406 290.097656 579.316406 287.773438 579.390625 287.699219 C 579.46875 287.699219 580.292969 289.648438 580.140625 290.472656 C 580.066406 291.222656 579.691406 292.121094 579.09375 292.496094 C 578.566406 292.871094 577.441406 293.023438 576.84375 292.796875 C 576.242188 292.496094 575.492188 291.824219 575.34375 291.074219 C 575.121094 290.097656 575.867188 287.851562 576.617188 287.25 C 577.292969 286.875 578.34375 287.027344 579.09375 287.324219 C 579.84375 287.550781 581.117188 288.601562 581.042969 288.898438 C 580.890625 289.199219 578.417969 288.449219 577.742188 288.972656 C 577.144531 289.425781 577.292969 291.523438 577.066406 291.523438 C 576.695312 291.523438 575.945312 288.300781 575.945312 286.949219 C 576.019531 285.675781 576.917969 283.425781 576.992188 283.425781 C 576.992188 283.425781 576.320312 285.300781 576.542969 285.976562 C 576.769531 286.652344 578.269531 287.25 578.191406 287.625 C 577.96875 288.148438 574.070312 287.027344 573.09375 287.773438 C 572.34375 288.375 572.269531 291 572.195312 290.921875 C 572.121094 290.921875 572.195312 288.75 572.570312 287.476562 C 573.171875 285.75 574.519531 282.378906 575.71875 281.628906 C 576.394531 281.253906 577.367188 281.328125 577.96875 281.628906 C 578.492188 281.929688 579.167969 282.828125 579.242188 283.425781 C 579.242188 284.101562 577.96875 284.851562 577.894531 285.601562 C 577.816406 286.351562 578.640625 286.949219 578.640625 287.851562 C 578.640625 289.050781 578.117188 291.449219 577.367188 292.121094 C 576.917969 292.574219 576.242188 292.722656 575.71875 292.574219 C 575.121094 292.496094 574.21875 292.046875 573.84375 291.375 C 573.246094 290.324219 572.871094 287.773438 573.546875 286.726562 C 574.21875 285.601562 577.441406 284.25 578.117188 284.851562 C 579.167969 285.824219 576.394531 295.570312 574.746094 296.996094 C 573.996094 297.671875 572.71875 297.671875 572.121094 297.296875 C 571.445312 296.996094 570.921875 296.097656 570.847656 294.972656 C 570.621094 292.347656 573.171875 283.050781 575.269531 281.476562 C 576.394531 280.652344 578.191406 280.878906 579.09375 281.328125 C 579.765625 281.703125 580.140625 282.453125 580.441406 283.277344 C 580.742188 284.175781 580.964844 285.601562 580.589844 286.5 C 580.292969 287.476562 579.015625 288.601562 578.191406 289.050781 C 577.667969 289.347656 577.144531 289.5 576.617188 289.273438 C 575.945312 289.125 574.894531 288.148438 574.820312 287.476562 C 574.667969 286.726562 575.269531 285.453125 575.945312 285.078125 C 576.542969 284.703125 578.117188 285 578.640625 285.453125 C 579.167969 285.902344 579.390625 286.875 579.242188 287.476562 C 579.167969 288.148438 578.492188 288.898438 577.96875 289.199219 C 577.367188 289.425781 576.320312 289.347656 575.792969 288.972656 C 575.269531 288.675781 574.746094 287.773438 574.746094 287.101562 C 574.820312 286.425781 575.644531 285.078125 576.394531 284.925781 C 577.066406 284.703125 578.566406 285.226562 578.941406 285.824219 C 579.316406 286.425781 579.242188 287.699219 578.941406 288.300781 C 578.71875 288.75 578.191406 289.125 577.667969 289.273438 C 577.144531 289.425781 576.09375 289.273438 575.644531 288.824219 C 575.121094 288.375 574.59375 286.949219 574.894531 286.351562 C 575.121094 285.824219 576.617188 285.902344 576.84375 285.375 C 577.066406 284.777344 575.570312 283.351562 575.792969 282.976562 C 576.09375 282.527344 578.566406 282.453125 579.09375 283.203125 C 580.21875 284.777344 576.46875 295.347656 574.746094 296.996094 C 574.070312 297.59375 573.246094 297.671875 572.644531 297.519531 C 571.972656 297.371094 571.296875 296.84375 570.996094 296.097656 C 570.472656 294.820312 571.222656 292.273438 571.671875 290.25 C 572.121094 288 572.421875 284.550781 573.695312 283.351562 C 574.519531 282.453125 576.242188 281.929688 577.066406 282.378906 C 577.96875 282.828125 578.269531 285.152344 578.34375 286.726562 C 578.566406 288.300781 578.566406 290.847656 577.816406 291.75 C 577.292969 292.421875 575.867188 292.722656 575.121094 292.496094 C 574.445312 292.199219 573.84375 291.222656 573.546875 290.175781 C 573.171875 288.75 573.769531 285.824219 574.21875 284.328125 C 574.59375 283.351562 575.570312 282.003906 575.570312 282.003906 C 575.570312 282.003906 574.59375 284.101562 574.519531 284.101562 C 574.445312 284.027344 574.59375 282.828125 574.894531 282.453125 C 575.195312 282.003906 575.71875 281.554688 576.242188 281.476562 C 576.769531 281.328125 577.441406 281.402344 577.96875 281.628906 C 578.417969 281.851562 578.867188 282.378906 579.09375 282.902344 C 579.316406 283.503906 579.316406 284.25 579.015625 285.226562 C 578.492188 287.175781 575.71875 291.824219 574.292969 293.472656 C 573.46875 294.371094 572.945312 294.820312 572.046875 295.121094 C 571.070312 295.421875 569.421875 295.496094 568.597656 295.046875 C 567.847656 294.671875 567.324219 293.773438 567.097656 293.023438 C 566.875 292.273438 566.949219 291.449219 567.171875 290.398438 C 567.472656 288.824219 568.523438 285.902344 569.496094 284.550781 C 570.246094 283.652344 570.847656 283.050781 571.972656 282.675781 C 573.84375 282.152344 578.566406 281.929688 580.066406 282.902344 C 580.964844 283.503906 581.417969 285 581.265625 285.824219 C 581.117188 286.726562 579.09375 288.074219 579.09375 288.074219 C 579.09375 288.074219 580.441406 286.351562 580.890625 286.425781 C 581.265625 286.574219 581.417969 288.148438 581.417969 289.050781 C 581.417969 290.023438 581.417969 291.898438 580.742188 292.273438 C 579.917969 292.722656 576.394531 290.546875 576.394531 290.699219 C 576.320312 290.699219 577.742188 291.898438 578.34375 291.824219 C 579.015625 291.824219 580.066406 290.324219 580.140625 290.472656 C 580.292969 290.546875 579.691406 292.121094 579.09375 292.496094 C 578.566406 292.871094 577.441406 293.023438 576.84375 292.796875 C 576.167969 292.421875 575.570312 291.523438 575.269531 290.472656 C 574.667969 288.601562 574.667969 283.277344 575.644531 281.851562 C 576.167969 281.027344 577.292969 280.652344 578.042969 280.730469 C 578.71875 280.878906 579.84375 282.527344 579.84375 282.527344 " clip-rule="nonzero"/></clipPath><clipPath id="0cbb2ed42d"><path d="M 0.886719 0.675781 L 15.464844 0.675781 L 15.464844 17.640625 L 0.886719 17.640625 Z M 0.886719 0.675781 " clip-rule="nonzero"/></clipPath><clipPath id="1178394e7d"><path d="M 13.84375 2.527344 C 14.441406 8.972656 13.765625 10.25 13.542969 10.175781 C 13.316406 10.097656 13.316406 7.773438 13.390625 7.699219 C 13.46875 7.699219 14.292969 9.648438 14.140625 10.472656 C 14.066406 11.222656 13.691406 12.121094 13.09375 12.496094 C 12.566406 12.871094 11.441406 13.023438 10.84375 12.796875 C 10.242188 12.496094 9.492188 11.824219 9.34375 11.074219 C 9.121094 10.097656 9.867188 7.851562 10.617188 7.25 C 11.292969 6.875 12.34375 7.027344 13.09375 7.324219 C 13.84375 7.550781 15.117188 8.601562 15.042969 8.898438 C 14.890625 9.199219 12.417969 8.449219 11.742188 8.972656 C 11.144531 9.425781 11.292969 11.523438 11.066406 11.523438 C 10.695312 11.523438 9.945312 8.300781 9.945312 6.949219 C 10.019531 5.675781 10.917969 3.425781 10.992188 3.425781 C 10.992188 3.425781 10.320312 5.300781 10.542969 5.976562 C 10.769531 6.652344 12.269531 7.25 12.191406 7.625 C 11.96875 8.148438 8.070312 7.027344 7.09375 7.773438 C 6.34375 8.375 6.269531 11 6.195312 10.921875 C 6.121094 10.921875 6.195312 8.75 6.570312 7.476562 C 7.171875 5.75 8.519531 2.378906 9.71875 1.628906 C 10.394531 1.253906 11.367188 1.328125 11.96875 1.628906 C 12.492188 1.929688 13.167969 2.828125 13.242188 3.425781 C 13.242188 4.101562 11.96875 4.851562 11.894531 5.601562 C 11.816406 6.351562 12.640625 6.949219 12.640625 7.851562 C 12.640625 9.050781 12.117188 11.449219 11.367188 12.121094 C 10.917969 12.574219 10.242188 12.722656 9.71875 12.574219 C 9.121094 12.496094 8.21875 12.046875 7.84375 11.375 C 7.246094 10.324219 6.871094 7.773438 7.546875 6.726562 C 8.21875 5.601562 11.441406 4.25 12.117188 4.851562 C 13.167969 5.824219 10.394531 15.570312 8.746094 16.996094 C 7.996094 17.671875 6.71875 17.671875 6.121094 17.296875 C 5.445312 16.996094 4.921875 16.097656 4.847656 14.972656 C 4.621094 12.347656 7.171875 3.050781 9.269531 1.476562 C 10.394531 0.652344 12.191406 0.878906 13.09375 1.328125 C 13.765625 1.703125 14.140625 2.453125 14.441406 3.277344 C 14.742188 4.175781 14.964844 5.601562 14.589844 6.5 C 14.292969 7.476562 13.015625 8.601562 12.191406 9.050781 C 11.667969 9.347656 11.144531 9.5 10.617188 9.273438 C 9.945312 9.125 8.894531 8.148438 8.820312 7.476562 C 8.667969 6.726562 9.269531 5.453125 9.945312 5.078125 C 10.542969 4.703125 12.117188 5 12.640625 5.453125 C 13.167969 5.902344 13.390625 6.875 13.242188 7.476562 C 13.167969 8.148438 12.492188 8.898438 11.96875 9.199219 C 11.367188 9.425781 10.320312 9.347656 9.792969 8.972656 C 9.269531 8.675781 8.746094 7.773438 8.746094 7.101562 C 8.820312 6.425781 9.644531 5.078125 10.394531 4.925781 C 11.066406 4.703125 12.566406 5.226562 12.941406 5.824219 C 13.316406 6.425781 13.242188 7.699219 12.941406 8.300781 C 12.71875 8.75 12.191406 9.125 11.667969 9.273438 C 11.144531 9.425781 10.09375 9.273438 9.644531 8.824219 C 9.121094 8.375 8.59375 6.949219 8.894531 6.351562 C 9.121094 5.824219 10.617188 5.902344 10.84375 5.375 C 11.066406 4.777344 9.570312 3.351562 9.792969 2.976562 C 10.09375 2.527344 12.566406 2.453125 13.09375 3.203125 C 14.21875 4.777344 10.46875 15.347656 8.746094 16.996094 C 8.070312 17.59375 7.246094 17.671875 6.644531 17.519531 C 5.972656 17.371094 5.296875 16.84375 4.996094 16.097656 C 4.472656 14.820312 5.222656 12.273438 5.671875 10.25 C 6.121094 8 6.421875 4.550781 7.695312 3.351562 C 8.519531 2.453125 10.242188 1.929688 11.066406 2.378906 C 11.96875 2.828125 12.269531 5.152344 12.34375 6.726562 C 12.566406 8.300781 12.566406 10.847656 11.816406 11.75 C 11.292969 12.421875 9.867188 12.722656 9.121094 12.496094 C 8.445312 12.199219 7.84375 11.222656 7.546875 10.175781 C 7.171875 8.75 7.769531 5.824219 8.21875 4.328125 C 8.59375 3.351562 9.570312 2.003906 9.570312 2.003906 C 9.570312 2.003906 8.59375 4.101562 8.519531 4.101562 C 8.445312 4.027344 8.59375 2.828125 8.894531 2.453125 C 9.195312 2.003906 9.71875 1.554688 10.242188 1.476562 C 10.769531 1.328125 11.441406 1.402344 11.96875 1.628906 C 12.417969 1.851562 12.867188 2.378906 13.09375 2.902344 C 13.316406 3.503906 13.316406 4.25 13.015625 5.226562 C 12.492188 7.175781 9.71875 11.824219 8.292969 13.472656 C 7.46875 14.371094 6.945312 14.820312 6.046875 15.121094 C 5.070312 15.421875 3.421875 15.496094 2.597656 15.046875 C 1.847656 14.671875 1.324219 13.773438 1.097656 13.023438 C 0.875 12.273438 0.949219 11.449219 1.171875 10.398438 C 1.472656 8.824219 2.523438 5.902344 3.496094 4.550781 C 4.246094 3.652344 4.847656 3.050781 5.972656 2.675781 C 7.84375 2.152344 12.566406 1.929688 14.066406 2.902344 C 14.964844 3.503906 15.417969 5 15.265625 5.824219 C 15.117188 6.726562 13.09375 8.074219 13.09375 8.074219 C 13.09375 8.074219 14.441406 6.351562 14.890625 6.425781 C 15.265625 6.574219 15.417969 8.148438 15.417969 9.050781 C 15.417969 10.023438 15.417969 11.898438 14.742188 12.273438 C 13.917969 12.722656 10.394531 10.546875 10.394531 10.699219 C 10.320312 10.699219 11.742188 11.898438 12.34375 11.824219 C 13.015625 11.824219 14.066406 10.324219 14.140625 10.472656 C 14.292969 10.546875 13.691406 12.121094 13.09375 12.496094 C 12.566406 12.871094 11.441406 13.023438 10.84375 12.796875 C 10.167969 12.421875 9.570312 11.523438 9.269531 10.472656 C 8.667969 8.601562 8.667969 3.277344 9.644531 1.851562 C 10.167969 1.027344 11.292969 0.652344 12.042969 0.730469 C 12.71875 0.878906 13.84375 2.527344 13.84375 2.527344 " clip-rule="nonzero"/></clipPath><clipPath id="bb6d377ff8"><rect x="0" width="16" y="0" height="18"/></clipPath><clipPath id="63f4f9e42c"><path d="M 498.515625 342.875 L 526.261719 342.875 L 526.261719 358.980469 L 498.515625 358.980469 Z M 498.515625 342.875 " clip-rule="nonzero"/></clipPath><clipPath id="c6049542a7"><path d="M 501.054688 343.699219 C 518.972656 349.019531 523.394531 348.871094 524.96875 349.769531 C 525.71875 350.144531 526.019531 350.59375 526.167969 351.121094 C 526.316406 351.492188 526.242188 352.09375 526.019531 352.46875 C 525.71875 352.917969 525.34375 353.21875 524.519531 353.441406 C 522.269531 354.042969 514.550781 352.394531 510.277344 352.320312 C 506.976562 352.242188 503.304688 353.519531 501.28125 352.695312 C 500.007812 352.167969 498.65625 350.746094 498.730469 349.917969 C 498.730469 349.246094 499.707031 348.644531 500.832031 348.121094 C 503.15625 346.769531 511.402344 344.371094 513.722656 344.671875 C 514.550781 344.746094 515.074219 345.121094 515.375 345.570312 C 515.671875 346.097656 515.824219 346.996094 515.597656 347.519531 C 515.375 348.046875 514.847656 348.570312 514.097656 348.796875 C 512.375 349.246094 506.152344 348.269531 504.429688 347.222656 C 503.605469 346.621094 503.003906 345.871094 503.003906 345.195312 C 503.003906 344.523438 503.527344 343.472656 504.355469 343.171875 C 506.304688 342.347656 514.097656 343.996094 516.273438 345.273438 C 517.324219 345.945312 517.996094 346.847656 518.070312 347.671875 C 518.148438 348.421875 517.398438 349.171875 516.949219 349.917969 C 516.496094 350.667969 515.898438 352.167969 515.296875 352.242188 C 514.625 352.320312 513.125 350.820312 513.273438 350.292969 C 513.347656 349.621094 515.898438 348.796875 516.796875 348.796875 C 517.472656 348.796875 517.996094 349.09375 518.371094 349.46875 C 518.746094 349.84375 519.046875 350.445312 519.046875 350.96875 C 519.121094 351.492188 518.898438 352.167969 518.597656 352.542969 C 518.296875 352.992188 517.773438 353.292969 517.246094 353.441406 C 516.496094 353.667969 514.847656 353.816406 514.550781 353.367188 C 514.175781 352.917969 515.296875 350.445312 515.523438 350.519531 C 515.671875 350.519531 515.972656 351.644531 515.824219 352.167969 C 515.671875 352.769531 515 353.667969 514.472656 353.96875 C 513.949219 354.191406 513.273438 354.191406 512.75 354.042969 C 512.226562 353.894531 511.324219 352.992188 511.402344 352.992188 C 511.402344 352.992188 513.425781 353.96875 513.347656 354.269531 C 513.199219 354.71875 508.851562 354.792969 507.578125 354.566406 C 506.828125 354.417969 506.304688 354.269531 505.929688 353.96875 C 505.476562 353.59375 505.101562 352.992188 505.101562 352.394531 C 505.101562 351.644531 505.628906 350.292969 506.378906 349.917969 C 507.351562 349.394531 509 349.917969 510.5 350.21875 C 512.375 350.667969 515.449219 351.269531 516.648438 352.242188 C 517.398438 352.992188 517.996094 354.042969 517.921875 354.867188 C 517.773438 355.617188 517.023438 356.441406 515.972656 356.964844 C 513.949219 357.867188 507.277344 357.867188 505.476562 357.339844 C 504.730469 357.117188 504.277344 356.742188 503.980469 356.292969 C 503.679688 355.84375 503.453125 355.167969 503.605469 354.566406 C 503.753906 353.816406 504.429688 352.917969 505.476562 352.46875 C 507.652344 351.492188 515.074219 351.867188 517.097656 352.542969 C 517.921875 352.769531 518.296875 353.144531 518.671875 353.59375 C 518.972656 354.042969 519.273438 354.792969 519.121094 355.390625 C 518.898438 356.140625 518.148438 357.117188 517.097656 357.640625 C 515.375 358.464844 510.125 358.617188 508.476562 358.164062 C 507.652344 357.941406 507.203125 357.566406 506.902344 357.117188 C 506.601562 356.667969 506.304688 355.917969 506.453125 355.316406 C 506.601562 354.492188 507.425781 353.441406 508.476562 352.992188 C 510.199219 352.320312 515.523438 352.84375 516.871094 353.96875 C 517.699219 354.71875 517.921875 356.367188 517.621094 357.117188 C 517.246094 357.941406 515.597656 358.765625 514.773438 358.691406 C 514.023438 358.617188 512.976562 357.867188 512.75 357.191406 C 512.449219 356.367188 512.824219 354.640625 513.425781 354.042969 C 513.949219 353.441406 515.148438 353.21875 515.824219 353.441406 C 516.648438 353.742188 517.847656 355.167969 517.847656 355.992188 C 517.847656 356.890625 516.949219 358.089844 515.898438 358.617188 C 514.324219 359.363281 509.976562 358.691406 508.476562 358.164062 C 507.726562 357.941406 507.203125 357.566406 506.902344 357.117188 C 506.601562 356.667969 506.378906 355.84375 506.453125 355.316406 C 506.527344 354.71875 506.902344 354.042969 507.351562 353.59375 C 507.800781 353.21875 508.25 353.144531 509.078125 352.917969 C 510.875 352.617188 516.125 351.945312 517.699219 352.769531 C 518.523438 353.21875 518.972656 354.042969 519.121094 354.792969 C 519.195312 355.46875 518.746094 356.515625 518.222656 357.042969 C 517.773438 357.492188 517.324219 357.566406 516.496094 357.714844 C 514.324219 358.015625 506.753906 358.316406 504.878906 357.117188 C 503.980469 356.515625 503.527344 355.316406 503.605469 354.566406 C 503.679688 353.816406 504.429688 352.917969 505.476562 352.46875 C 507.503906 351.492188 514.25 351.492188 516.046875 352.019531 C 516.871094 352.242188 517.246094 352.617188 517.546875 353.066406 C 517.847656 353.59375 517.996094 354.269531 517.921875 354.867188 C 517.847656 355.390625 517.472656 356.066406 517.023438 356.367188 C 516.574219 356.742188 516.125 356.964844 515.375 356.964844 C 513.574219 357.042969 507.953125 355.542969 506.378906 354.269531 C 505.554688 353.59375 505.027344 352.542969 505.101562 351.792969 C 505.179688 351.121094 505.703125 350.292969 506.378906 349.917969 C 507.578125 349.171875 510.726562 349.320312 512.375 349.46875 C 513.574219 349.621094 515 349.84375 515.523438 350.519531 C 515.972656 351.042969 515.972656 352.167969 515.671875 352.769531 C 515.296875 353.367188 514.023438 354.191406 513.273438 354.191406 C 512.601562 354.191406 511.699219 353.667969 511.402344 352.992188 C 510.949219 352.242188 510.949219 350.21875 511.476562 349.546875 C 511.925781 348.871094 513.050781 348.71875 514.023438 348.570312 C 515.074219 348.496094 516.496094 348.421875 517.398438 348.871094 C 518.148438 349.320312 519.046875 350.21875 519.046875 350.96875 C 519.121094 351.644531 518.523438 352.769531 517.773438 353.292969 C 516.648438 354.042969 513.425781 354.492188 512.226562 353.96875 C 511.324219 353.59375 510.5 352.46875 510.574219 351.570312 C 510.652344 350.371094 513.425781 347.371094 514.324219 347.519531 C 514.847656 347.519531 515.75 349.171875 515.523438 349.546875 C 514.921875 350.292969 506.304688 348.421875 504.429688 347.222656 C 503.527344 346.621094 503.003906 345.871094 503.003906 345.195312 C 503.003906 344.523438 503.527344 343.472656 504.355469 343.171875 C 506.078125 342.421875 512.523438 344.074219 514.175781 344.746094 C 514.847656 344.972656 515.148438 345.195312 515.375 345.570312 C 515.671875 346.097656 515.824219 346.996094 515.597656 347.519531 C 515.375 348.046875 514.921875 348.34375 514.097656 348.796875 C 512.074219 349.769531 503.679688 352.242188 501.953125 351.269531 C 501.207031 350.820312 500.832031 349.246094 501.128906 348.796875 C 501.65625 348.046875 504.128906 348.570312 506.453125 348.570312 C 510.726562 348.644531 521.820312 348.496094 524.519531 349.621094 C 525.492188 349.996094 526.019531 350.519531 526.167969 351.121094 C 526.316406 351.644531 526.09375 352.46875 525.71875 352.84375 C 525.34375 353.21875 524.894531 353.367188 524.070312 353.441406 C 521.445312 353.667969 512.300781 351.269531 507.726562 350.070312 C 504.355469 349.09375 500.007812 348.421875 498.957031 346.996094 C 498.433594 346.246094 498.433594 344.898438 498.882812 344.371094 C 499.179688 343.847656 501.054688 343.699219 501.054688 343.699219 " clip-rule="nonzero"/></clipPath><clipPath id="b36d6059a4"><path d="M 0.515625 0.875 L 28.261719 0.875 L 28.261719 16.980469 L 0.515625 16.980469 Z M 0.515625 0.875 " clip-rule="nonzero"/></clipPath><clipPath id="23cc60b2a4"><path d="M 3.054688 1.699219 C 20.972656 7.019531 25.394531 6.871094 26.96875 7.769531 C 27.71875 8.144531 28.019531 8.59375 28.167969 9.121094 C 28.316406 9.492188 28.242188 10.09375 28.019531 10.46875 C 27.71875 10.917969 27.34375 11.21875 26.519531 11.441406 C 24.269531 12.042969 16.550781 10.394531 12.277344 10.320312 C 8.976562 10.242188 5.304688 11.519531 3.28125 10.695312 C 2.007812 10.167969 0.65625 8.746094 0.730469 7.917969 C 0.730469 7.246094 1.707031 6.644531 2.832031 6.121094 C 5.15625 4.769531 13.402344 2.371094 15.722656 2.671875 C 16.550781 2.746094 17.074219 3.121094 17.375 3.570312 C 17.671875 4.097656 17.824219 4.996094 17.597656 5.519531 C 17.375 6.046875 16.847656 6.570312 16.097656 6.796875 C 14.375 7.246094 8.152344 6.269531 6.429688 5.222656 C 5.605469 4.621094 5.003906 3.871094 5.003906 3.195312 C 5.003906 2.523438 5.527344 1.472656 6.355469 1.171875 C 8.304688 0.347656 16.097656 1.996094 18.273438 3.273438 C 19.324219 3.945312 19.996094 4.847656 20.070312 5.671875 C 20.148438 6.421875 19.398438 7.171875 18.949219 7.917969 C 18.496094 8.667969 17.898438 10.167969 17.296875 10.242188 C 16.625 10.320312 15.125 8.820312 15.273438 8.292969 C 15.347656 7.621094 17.898438 6.796875 18.796875 6.796875 C 19.472656 6.796875 19.996094 7.09375 20.371094 7.46875 C 20.746094 7.84375 21.046875 8.445312 21.046875 8.96875 C 21.121094 9.492188 20.898438 10.167969 20.597656 10.542969 C 20.296875 10.992188 19.773438 11.292969 19.246094 11.441406 C 18.496094 11.667969 16.847656 11.816406 16.550781 11.367188 C 16.175781 10.917969 17.296875 8.445312 17.523438 8.519531 C 17.671875 8.519531 17.972656 9.644531 17.824219 10.167969 C 17.671875 10.769531 17 11.667969 16.472656 11.96875 C 15.949219 12.191406 15.273438 12.191406 14.75 12.042969 C 14.226562 11.894531 13.324219 10.992188 13.402344 10.992188 C 13.402344 10.992188 15.425781 11.96875 15.347656 12.269531 C 15.199219 12.71875 10.851562 12.792969 9.578125 12.566406 C 8.828125 12.417969 8.304688 12.269531 7.929688 11.96875 C 7.476562 11.59375 7.101562 10.992188 7.101562 10.394531 C 7.101562 9.644531 7.628906 8.292969 8.378906 7.917969 C 9.351562 7.394531 11 7.917969 12.5 8.21875 C 14.375 8.667969 17.449219 9.269531 18.648438 10.242188 C 19.398438 10.992188 19.996094 12.042969 19.921875 12.867188 C 19.773438 13.617188 19.023438 14.441406 17.972656 14.964844 C 15.949219 15.867188 9.277344 15.867188 7.476562 15.339844 C 6.730469 15.117188 6.277344 14.742188 5.980469 14.292969 C 5.679688 13.84375 5.453125 13.167969 5.605469 12.566406 C 5.753906 11.816406 6.429688 10.917969 7.476562 10.46875 C 9.652344 9.492188 17.074219 9.867188 19.097656 10.542969 C 19.921875 10.769531 20.296875 11.144531 20.671875 11.59375 C 20.972656 12.042969 21.273438 12.792969 21.121094 13.390625 C 20.898438 14.140625 20.148438 15.117188 19.097656 15.640625 C 17.375 16.464844 12.125 16.617188 10.476562 16.164062 C 9.652344 15.941406 9.203125 15.566406 8.902344 15.117188 C 8.601562 14.667969 8.304688 13.917969 8.453125 13.316406 C 8.601562 12.492188 9.425781 11.441406 10.476562 10.992188 C 12.199219 10.320312 17.523438 10.84375 18.871094 11.96875 C 19.699219 12.71875 19.921875 14.367188 19.621094 15.117188 C 19.246094 15.941406 17.597656 16.765625 16.773438 16.691406 C 16.023438 16.617188 14.976562 15.867188 14.75 15.191406 C 14.449219 14.367188 14.824219 12.640625 15.425781 12.042969 C 15.949219 11.441406 17.148438 11.21875 17.824219 11.441406 C 18.648438 11.742188 19.847656 13.167969 19.847656 13.992188 C 19.847656 14.890625 18.949219 16.089844 17.898438 16.617188 C 16.324219 17.363281 11.976562 16.691406 10.476562 16.164062 C 9.726562 15.941406 9.203125 15.566406 8.902344 15.117188 C 8.601562 14.667969 8.378906 13.84375 8.453125 13.316406 C 8.527344 12.71875 8.902344 12.042969 9.351562 11.59375 C 9.800781 11.21875 10.25 11.144531 11.078125 10.917969 C 12.875 10.617188 18.125 9.945312 19.699219 10.769531 C 20.523438 11.21875 20.972656 12.042969 21.121094 12.792969 C 21.195312 13.46875 20.746094 14.515625 20.222656 15.042969 C 19.773438 15.492188 19.324219 15.566406 18.496094 15.714844 C 16.324219 16.015625 8.753906 16.316406 6.878906 15.117188 C 5.980469 14.515625 5.527344 13.316406 5.605469 12.566406 C 5.679688 11.816406 6.429688 10.917969 7.476562 10.46875 C 9.503906 9.492188 16.25 9.492188 18.046875 10.019531 C 18.871094 10.242188 19.246094 10.617188 19.546875 11.066406 C 19.847656 11.59375 19.996094 12.269531 19.921875 12.867188 C 19.847656 13.390625 19.472656 14.066406 19.023438 14.367188 C 18.574219 14.742188 18.125 14.964844 17.375 14.964844 C 15.574219 15.042969 9.953125 13.542969 8.378906 12.269531 C 7.554688 11.59375 7.027344 10.542969 7.101562 9.792969 C 7.179688 9.121094 7.703125 8.292969 8.378906 7.917969 C 9.578125 7.171875 12.726562 7.320312 14.375 7.46875 C 15.574219 7.621094 17 7.84375 17.523438 8.519531 C 17.972656 9.042969 17.972656 10.167969 17.671875 10.769531 C 17.296875 11.367188 16.023438 12.191406 15.273438 12.191406 C 14.601562 12.191406 13.699219 11.667969 13.402344 10.992188 C 12.949219 10.242188 12.949219 8.21875 13.476562 7.546875 C 13.925781 6.871094 15.050781 6.71875 16.023438 6.570312 C 17.074219 6.496094 18.496094 6.421875 19.398438 6.871094 C 20.148438 7.320312 21.046875 8.21875 21.046875 8.96875 C 21.121094 9.644531 20.523438 10.769531 19.773438 11.292969 C 18.648438 12.042969 15.425781 12.492188 14.226562 11.96875 C 13.324219 11.59375 12.5 10.46875 12.574219 9.570312 C 12.652344 8.371094 15.425781 5.371094 16.324219 5.519531 C 16.847656 5.519531 17.75 7.171875 17.523438 7.546875 C 16.921875 8.292969 8.304688 6.421875 6.429688 5.222656 C 5.527344 4.621094 5.003906 3.871094 5.003906 3.195312 C 5.003906 2.523438 5.527344 1.472656 6.355469 1.171875 C 8.078125 0.421875 14.523438 2.074219 16.175781 2.746094 C 16.847656 2.972656 17.148438 3.195312 17.375 3.570312 C 17.671875 4.097656 17.824219 4.996094 17.597656 5.519531 C 17.375 6.046875 16.921875 6.34375 16.097656 6.796875 C 14.074219 7.769531 5.679688 10.242188 3.953125 9.269531 C 3.207031 8.820312 2.832031 7.246094 3.128906 6.796875 C 3.65625 6.046875 6.128906 6.570312 8.453125 6.570312 C 12.726562 6.644531 23.820312 6.496094 26.519531 7.621094 C 27.492188 7.996094 28.019531 8.519531 28.167969 9.121094 C 28.316406 9.644531 28.09375 10.46875 27.71875 10.84375 C 27.34375 11.21875 26.894531 11.367188 26.070312 11.441406 C 23.445312 11.667969 14.300781 9.269531 9.726562 8.070312 C 6.355469 7.09375 2.007812 6.421875 0.957031 4.996094 C 0.433594 4.246094 0.433594 2.898438 0.882812 2.371094 C 1.179688 1.847656 3.054688 1.699219 3.054688 1.699219 " clip-rule="nonzero"/></clipPath><clipPath id="6fb81cd829"><rect x="0" width="29" y="0" height="17"/></clipPath><clipPath id="25e8fd2202"><path d="M 442.308594 283.871094 L 447.3125 283.871094 L 447.3125 292.847656 L 442.308594 292.847656 Z M 442.308594 283.871094 " clip-rule="nonzero"/></clipPath><clipPath id="5b91f21057"><path d="M 442.734375 290.921875 C 443.332031 284.027344 444.683594 283.800781 445.433594 284.027344 C 446.03125 284.175781 446.78125 285 446.855469 285.601562 C 447.007812 286.351562 446.480469 287.699219 445.957031 288.148438 C 445.433594 288.601562 444.382812 288.675781 443.785156 288.375 C 443.183594 288.148438 442.433594 287.398438 442.359375 286.726562 C 442.210938 286.125 442.507812 285.078125 442.882812 284.625 C 443.332031 284.175781 444.382812 283.726562 444.984375 283.953125 C 445.730469 284.101562 446.78125 285.226562 446.933594 285.976562 C 447.082031 286.652344 446.632812 287.625 446.105469 288 C 445.65625 288.449219 444.609375 288.675781 444.007812 288.523438 C 443.332031 288.300781 442.582031 287.625 442.433594 286.949219 C 442.210938 286.351562 442.433594 285.226562 442.808594 284.703125 C 443.257812 284.175781 444.234375 283.878906 444.832031 283.878906 C 445.433594 283.953125 445.957031 284.101562 446.332031 284.625 C 447.082031 285.675781 447.457031 289.347656 447.230469 290.699219 C 447.15625 291.375 446.933594 291.824219 446.558594 292.199219 C 446.257812 292.496094 445.65625 292.796875 445.132812 292.796875 C 444.609375 292.871094 443.933594 292.648438 443.558594 292.347656 C 443.183594 292.046875 442.734375 290.921875 442.734375 290.921875 " clip-rule="nonzero"/></clipPath><clipPath id="b54920b3b1"><path d="M 0.308594 0.871094 L 5.3125 0.871094 L 5.3125 9.847656 L 0.308594 9.847656 Z M 0.308594 0.871094 " clip-rule="nonzero"/></clipPath><clipPath id="c0031b8a29"><path d="M 0.734375 7.921875 C 1.332031 1.027344 2.683594 0.800781 3.433594 1.027344 C 4.03125 1.175781 4.78125 2 4.855469 2.601562 C 5.007812 3.351562 4.480469 4.699219 3.957031 5.148438 C 3.433594 5.601562 2.382812 5.675781 1.785156 5.375 C 1.183594 5.148438 0.433594 4.398438 0.359375 3.726562 C 0.210938 3.125 0.507812 2.078125 0.882812 1.625 C 1.332031 1.175781 2.382812 0.726562 2.984375 0.953125 C 3.730469 1.101562 4.78125 2.226562 4.933594 2.976562 C 5.082031 3.652344 4.632812 4.625 4.105469 5 C 3.65625 5.449219 2.609375 5.675781 2.007812 5.523438 C 1.332031 5.300781 0.582031 4.625 0.433594 3.949219 C 0.210938 3.351562 0.433594 2.226562 0.808594 1.703125 C 1.257812 1.175781 2.234375 0.878906 2.832031 0.878906 C 3.433594 0.953125 3.957031 1.101562 4.332031 1.625 C 5.082031 2.675781 5.457031 6.347656 5.230469 7.699219 C 5.15625 8.375 4.933594 8.824219 4.558594 9.199219 C 4.257812 9.496094 3.65625 9.796875 3.132812 9.796875 C 2.609375 9.871094 1.933594 9.648438 1.558594 9.347656 C 1.183594 9.046875 0.734375 7.921875 0.734375 7.921875 " clip-rule="nonzero"/></clipPath><clipPath id="2dd899dec4"><rect x="0" width="6" y="0" height="10"/></clipPath></defs><g clip-path="url(#02207088ce)"><path fill="#333333" d="M 820.183594 214.898438 L 585.265625 214.898438 L 585.265625 -21.847656 L 438.921875 -21.847656 L 438.921875 214.898438 L 204.003906 214.898438 L 204.003906 361.210938 L 438.921875 361.210938 L 438.921875 597.960938 L 585.265625 597.960938 L 585.265625 361.210938 L 820.183594 361.210938 Z M 820.183594 214.898438 " fill-opacity="1" fill-rule="nonzero"/><path fill="#e6e6e6" d="M 574.289062 597.960938 L 566.972656 597.960938 L 566.972656 342.921875 L 820.183594 342.921875 L 820.183594 350.238281 L 574.289062 350.238281 Z M 820.183594 225.875 L 574.289062 225.875 L 574.289062 -21.847656 L 566.972656 -21.847656 L 566.972656 233.1875 L 820.183594 233.1875 Z M 457.214844 -21.847656 L 449.898438 -21.847656 L 449.898438 225.875 L 204.003906 225.875 L 204.003906 233.1875 L 457.214844 233.1875 Z M 457.214844 342.921875 L 204.003906 342.921875 L 204.003906 350.238281 L 449.898438 350.238281 L 449.898438 597.960938 L 457.214844 597.960938 Z M 515.75 -21.847656 L 508.433594 -21.847656 L 508.433594 -3.5625 L 515.75 -3.5625 Z M 515.75 501.90625 L 508.433594 501.90625 L 508.433594 540.789062 L 515.75 540.789062 Z M 515.75 424.144531 L 508.433594 424.144531 L 508.433594 463.027344 L 515.75 463.027344 Z M 515.75 346.378906 L 508.433594 346.378906 L 508.433594 385.261719 L 515.75 385.261719 Z M 515.75 190.851562 L 508.433594 190.851562 L 508.433594 229.734375 L 515.75 229.734375 Z M 515.75 113.085938 L 508.433594 113.085938 L 508.433594 151.96875 L 515.75 151.96875 Z M 515.75 35.324219 L 508.433594 35.324219 L 508.433594 74.207031 L 515.75 74.207031 Z M 515.75 579.675781 L 508.433594 579.675781 L 508.433594 597.964844 L 515.75 597.964844 Z M 820.183594 284.402344 L 801.890625 284.402344 L 801.890625 291.714844 L 820.183594 291.714844 Z M 763.25 284.402344 L 724.613281 284.402344 L 724.613281 291.714844 L 763.25 291.714844 Z M 685.972656 284.402344 L 647.332031 284.402344 L 647.332031 291.714844 L 685.972656 291.714844 Z M 608.691406 284.402344 L 570.054688 284.402344 L 570.054688 291.714844 L 608.691406 291.714844 Z M 454.132812 284.402344 L 415.496094 284.402344 L 415.496094 291.714844 L 454.132812 291.714844 Z M 376.855469 284.402344 L 338.214844 284.402344 L 338.214844 291.714844 L 376.855469 291.714844 Z M 299.578125 284.402344 L 260.9375 284.402344 L 260.9375 291.714844 L 299.578125 291.714844 Z M 222.296875 284.402344 L 204.003906 284.402344 L 204.003906 291.714844 L 222.296875 291.714844 Z M 222.296875 284.402344 " fill-opacity="1" fill-rule="nonzero"/></g><g clip-path="url(#9652a0e30e)"><path fill="#333333" d="M 213.492188 214.898438 L -21.425781 214.898438 L -21.425781 -21.847656 L -167.769531 -21.847656 L -167.769531 214.898438 L -402.6875 214.898438 L -402.6875 361.210938 L -167.769531 361.210938 L -167.769531 597.960938 L -21.425781 597.960938 L -21.425781 361.210938 L 213.492188 361.210938 Z M 213.492188 214.898438 " fill-opacity="1" fill-rule="nonzero"/><path fill="#e6e6e6" d="M -32.402344 597.960938 L -39.722656 597.960938 L -39.722656 342.921875 L 213.492188 342.921875 L 213.492188 350.238281 L -32.402344 350.238281 Z M 213.492188 225.875 L -32.402344 225.875 L -32.402344 -21.847656 L -39.71875 -21.847656 L -39.71875 233.1875 L 213.492188 233.1875 Z M -149.476562 -21.847656 L -156.792969 -21.847656 L -156.792969 225.875 L -402.6875 225.875 L -402.6875 233.1875 L -149.476562 233.1875 Z M -149.476562 342.921875 L -402.6875 342.921875 L -402.6875 350.238281 L -156.792969 350.238281 L -156.792969 597.960938 L -149.476562 597.960938 Z M -90.941406 -21.847656 L -98.257812 -21.847656 L -98.257812 -3.5625 L -90.941406 -3.5625 Z M -90.941406 501.90625 L -98.257812 501.90625 L -98.257812 540.789062 L -90.941406 540.789062 Z M -90.941406 424.144531 L -98.257812 424.144531 L -98.257812 463.027344 L -90.941406 463.027344 Z M -90.941406 346.378906 L -98.257812 346.378906 L -98.257812 385.261719 L -90.941406 385.261719 Z M -90.941406 190.851562 L -98.257812 190.851562 L -98.257812 229.734375 L -90.941406 229.734375 Z M -90.941406 113.085938 L -98.257812 113.085938 L -98.257812 151.96875 L -90.941406 151.96875 Z M -90.941406 35.324219 L -98.257812 35.324219 L -98.257812 74.207031 L -90.941406 74.207031 Z M -90.941406 579.675781 L -98.257812 579.675781 L -98.257812 597.964844 L -90.941406 597.964844 Z M 213.492188 284.402344 L 195.199219 284.402344 L 195.199219 291.714844 L 213.492188 291.714844 Z M 156.558594 284.402344 L 117.917969 284.402344 L 117.917969 291.714844 L 156.558594 291.714844 Z M 79.28125 284.402344 L 40.640625 284.402344 L 40.640625 291.714844 L 79.28125 291.714844 Z M 2 284.402344 L -36.636719 284.402344 L -36.636719 291.714844 L 2 291.714844 Z M -152.558594 284.402344 L -191.195312 284.402344 L -191.195312 291.714844 L -152.558594 291.714844 Z M -229.835938 284.402344 L -268.476562 284.402344 L -268.476562 291.714844 L -229.835938 291.714844 Z M -307.113281 284.402344 L -345.753906 284.402344 L -345.753906 291.714844 L -307.113281 291.714844 Z M -384.394531 284.402344 L -402.6875 284.402344 L -402.6875 291.714844 L -384.394531 291.714844 Z M -384.394531 284.402344 " fill-opacity="1" fill-rule="nonzero"/></g><g clip-path="url(#25e569a9fb)"><path fill="#333333" d="M 1427.011719 214.898438 L 1192.09375 214.898438 L 1192.09375 -21.847656 L 1045.75 -21.847656 L 1045.75 214.898438 L 810.832031 214.898438 L 810.832031 361.210938 L 1045.75 361.210938 L 1045.75 597.960938 L 1192.09375 597.960938 L 1192.09375 361.210938 L 1427.011719 361.210938 Z M 1427.011719 214.898438 " fill-opacity="1" fill-rule="nonzero"/><path fill="#e6e6e6" d="M 1181.117188 597.960938 L 1173.800781 597.960938 L 1173.800781 342.921875 L 1427.011719 342.921875 L 1427.011719 350.238281 L 1181.117188 350.238281 Z M 1427.011719 225.875 L 1181.117188 225.875 L 1181.117188 -21.847656 L 1173.800781 -21.847656 L 1173.800781 233.1875 L 1427.011719 233.1875 Z M 1064.042969 -21.847656 L 1056.726562 -21.847656 L 1056.726562 225.875 L 810.832031 225.875 L 810.832031 233.1875 L 1064.042969 233.1875 Z M 1064.042969 342.921875 L 810.832031 342.921875 L 810.832031 350.238281 L 1056.726562 350.238281 L 1056.726562 597.960938 L 1064.042969 597.960938 Z M 1122.582031 -21.847656 L 1115.265625 -21.847656 L 1115.265625 -3.5625 L 1122.582031 -3.5625 Z M 1122.582031 501.90625 L 1115.265625 501.90625 L 1115.265625 540.789062 L 1122.582031 540.789062 Z M 1122.582031 424.144531 L 1115.265625 424.144531 L 1115.265625 463.027344 L 1122.582031 463.027344 Z M 1122.582031 346.378906 L 1115.265625 346.378906 L 1115.265625 385.261719 L 1122.582031 385.261719 Z M 1122.582031 190.851562 L 1115.265625 190.851562 L 1115.265625 229.734375 L 1122.582031 229.734375 Z M 1122.582031 113.085938 L 1115.265625 113.085938 L 1115.265625 151.96875 L 1122.582031 151.96875 Z M 1122.582031 35.324219 L 1115.265625 35.324219 L 1115.265625 74.207031 L 1122.582031 74.207031 Z M 1122.582031 579.675781 L 1115.265625 579.675781 L 1115.265625 597.964844 L 1122.582031 597.964844 Z M 1427.011719 284.402344 L 1408.71875 284.402344 L 1408.71875 291.714844 L 1427.011719 291.714844 Z M 1370.078125 284.402344 L 1331.441406 284.402344 L 1331.441406 291.714844 L 1370.078125 291.714844 Z M 1292.800781 284.402344 L 1254.160156 284.402344 L 1254.160156 291.714844 L 1292.800781 291.714844 Z M 1215.523438 284.402344 L 1176.882812 284.402344 L 1176.882812 291.714844 L 1215.523438 291.714844 Z M 1060.964844 284.402344 L 1022.324219 284.402344 L 1022.324219 291.714844 L 1060.964844 291.714844 Z M 983.683594 284.402344 L 945.046875 284.402344 L 945.046875 291.714844 L 983.683594 291.714844 Z M 906.40625 284.402344 L 867.765625 284.402344 L 867.765625 291.714844 L 906.40625 291.714844 Z M 829.125 284.402344 L 810.832031 284.402344 L 810.832031 291.714844 L 829.125 291.714844 Z M 829.125 284.402344 " fill-opacity="1" fill-rule="nonzero"/></g><g clip-path="url(#0d57d64f8a)"><path fill="#ffffff" d="M 389.625 342.636719 L 389.625 334.003906 C 407.058594 334.003906 424.492188 334.003906 441.921875 334.003906 C 441.921875 336.882812 441.921875 339.757812 441.921875 342.636719 C 424.492188 342.636719 407.058594 342.636719 389.625 342.636719 " fill-opacity="1" fill-rule="nonzero"/></g><g clip-path="url(#06f0c4274d)"><path fill="#ffffff" d="M 389.804688 329.871094 L 389.804688 321.242188 L 442.101562 321.242188 L 442.101562 329.871094 L 389.804688 329.871094 " fill-opacity="1" fill-rule="nonzero"/></g><g clip-path="url(#bd6ae3f92a)"><path fill="#ffffff" d="M 389.984375 317.285156 L 389.984375 308.65625 C 407.417969 308.65625 424.851562 308.65625 442.28125 308.65625 C 442.28125 311.535156 442.28125 314.410156 442.28125 317.285156 C 424.851562 317.285156 407.417969 317.285156 389.984375 317.285156 " fill-opacity="1" fill-rule="nonzero"/></g><g clip-path="url(#80b27dd2aa)"><path fill="#ffffff" d="M 389.929688 305.296875 L 389.929688 296.667969 C 407.363281 296.667969 424.796875 296.667969 442.230469 296.667969 C 442.230469 299.542969 442.230469 302.417969 442.230469 305.296875 C 424.796875 305.296875 407.363281 305.296875 389.929688 305.296875 " fill-opacity="1" fill-rule="nonzero"/></g><g clip-path="url(#706179e6a0)"><path fill="#ffffff" d="M 390.109375 292.53125 L 390.109375 283.902344 L 442.410156 283.902344 L 442.410156 292.53125 L 390.109375 292.53125 " fill-opacity="1" fill-rule="nonzero"/></g><g clip-path="url(#16a43bddad)"><path fill="#ffffff" d="M 390.289062 279.945312 L 390.289062 271.316406 C 407.722656 271.316406 425.15625 271.316406 442.589844 271.316406 C 442.589844 274.195312 442.589844 277.070312 442.589844 279.945312 C 425.15625 279.945312 407.722656 279.945312 390.289062 279.945312 " fill-opacity="1" fill-rule="nonzero"/></g><g clip-path="url(#6f88a78249)"><path fill="#ffffff" d="M 390.234375 267.34375 L 390.234375 263.03125 L 390.238281 258.714844 C 407.667969 258.714844 425.101562 258.714844 442.535156 258.714844 C 442.535156 261.589844 442.535156 264.46875 442.535156 267.34375 C 425.101562 267.34375 407.667969 267.34375 390.234375 267.34375 " fill-opacity="1" fill-rule="nonzero"/></g><g clip-path="url(#81d4615495)"><path fill="#ffffff" d="M 390.414062 254.578125 L 390.417969 245.949219 L 442.714844 245.949219 L 442.714844 254.578125 L 390.414062 254.578125 " fill-opacity="1" fill-rule="nonzero"/></g><g clip-path="url(#ea3cbcb401)"><path fill="#ffffff" d="M 390.59375 241.996094 L 390.597656 237.679688 L 390.597656 233.367188 C 408.027344 233.367188 425.460938 233.367188 442.894531 233.367188 C 442.894531 236.242188 442.894531 239.117188 442.894531 241.996094 C 425.460938 241.996094 408.027344 241.996094 390.59375 241.996094 " fill-opacity="1" fill-rule="nonzero"/></g><g clip-path="url(#75a446d518)"><path fill="#ffffff" d="M 457.359375 161.03125 L 465.988281 161.03125 C 465.988281 178.460938 465.988281 195.894531 465.988281 213.328125 C 463.109375 213.328125 460.234375 213.328125 457.359375 213.328125 C 457.359375 195.894531 457.359375 178.460938 457.359375 161.03125 " fill-opacity="1" fill-rule="nonzero"/></g><g clip-path="url(#12bb237ef8)"><path fill="#ffffff" d="M 470.121094 161.210938 L 478.75 161.210938 L 478.75 213.507812 L 470.121094 213.507812 L 470.121094 161.210938 " fill-opacity="1" fill-rule="nonzero"/></g><g clip-path="url(#c34179e092)"><path fill="#ffffff" d="M 482.707031 161.390625 L 491.335938 161.390625 C 491.335938 178.820312 491.335938 196.253906 491.335938 213.6875 C 488.460938 213.6875 485.582031 213.6875 482.707031 213.6875 C 482.707031 196.253906 482.707031 178.820312 482.707031 161.390625 " fill-opacity="1" fill-rule="nonzero"/></g><g clip-path="url(#792903be33)"><path fill="#ffffff" d="M 494.699219 161.335938 L 503.328125 161.335938 C 503.328125 178.769531 503.328125 196.203125 503.328125 213.632812 C 500.449219 213.632812 497.574219 213.632812 494.699219 213.636719 C 494.699219 196.203125 494.699219 178.769531 494.699219 161.335938 " fill-opacity="1" fill-rule="nonzero"/></g><g clip-path="url(#91108df9a9)"><path fill="#ffffff" d="M 507.460938 161.515625 L 516.089844 161.515625 L 516.089844 213.8125 L 507.460938 213.816406 L 507.460938 161.515625 " fill-opacity="1" fill-rule="nonzero"/></g><g clip-path="url(#64e4adf764)"><path fill="#ffffff" d="M 520.046875 161.695312 L 528.675781 161.695312 C 528.675781 179.128906 528.675781 196.5625 528.675781 213.992188 C 525.800781 213.992188 522.921875 213.992188 520.046875 213.996094 C 520.046875 196.5625 520.046875 179.128906 520.046875 161.695312 " fill-opacity="1" fill-rule="nonzero"/></g><g clip-path="url(#9be98c65a5)"><path fill="#ffffff" d="M 532.648438 161.640625 L 541.277344 161.640625 C 541.277344 179.074219 541.277344 196.507812 541.277344 213.941406 C 538.402344 213.941406 535.523438 213.941406 532.648438 213.941406 C 532.648438 196.507812 532.648438 179.074219 532.648438 161.640625 " fill-opacity="1" fill-rule="nonzero"/></g><g clip-path="url(#b5de93e35d)"><path fill="#ffffff" d="M 545.414062 161.820312 L 554.042969 161.820312 L 554.042969 214.121094 L 545.414062 214.121094 L 545.414062 161.820312 " fill-opacity="1" fill-rule="nonzero"/></g><g clip-path="url(#f4fefb4cc5)"><path fill="#ffffff" d="M 557.996094 162 L 566.625 162 C 566.625 179.433594 566.625 196.867188 566.625 214.300781 C 563.75 214.300781 560.875 214.300781 557.996094 214.300781 C 557.996094 196.867188 557.996094 179.433594 557.996094 162 " fill-opacity="1" fill-rule="nonzero"/></g><g clip-path="url(#9774ee0832)"><path fill="#ffffff" d="M 580.882812 342.636719 L 580.882812 334.003906 C 598.316406 334.003906 615.75 334.003906 633.183594 334.003906 C 633.183594 336.882812 633.183594 339.757812 633.183594 342.636719 C 615.75 342.636719 598.316406 342.636719 580.882812 342.636719 " fill-opacity="1" fill-rule="nonzero"/></g><path fill="#ffffff" d="M 581.0625 329.871094 L 581.0625 321.242188 L 633.363281 321.242188 L 633.363281 329.871094 L 581.0625 329.871094 " fill-opacity="1" fill-rule="nonzero"/><path fill="#ffffff" d="M 581.242188 317.285156 L 581.242188 308.65625 C 598.675781 308.65625 616.109375 308.65625 633.542969 308.65625 C 633.542969 311.535156 633.542969 314.410156 633.542969 317.285156 C 616.109375 317.285156 598.675781 317.285156 581.242188 317.285156 " fill-opacity="1" fill-rule="nonzero"/><path fill="#ffffff" d="M 581.191406 305.296875 L 581.191406 296.667969 C 598.625 296.667969 616.054688 296.667969 633.488281 296.667969 C 633.488281 299.542969 633.488281 302.417969 633.488281 305.296875 C 616.054688 305.296875 598.621094 305.296875 581.191406 305.296875 " fill-opacity="1" fill-rule="nonzero"/><path fill="#ffffff" d="M 581.371094 292.53125 L 581.371094 283.902344 L 633.667969 283.902344 L 633.667969 292.53125 L 581.371094 292.53125 " fill-opacity="1" fill-rule="nonzero"/><path fill="#ffffff" d="M 581.550781 279.945312 L 581.550781 271.316406 C 598.984375 271.316406 616.414062 271.316406 633.847656 271.316406 C 633.847656 274.195312 633.847656 277.070312 633.847656 279.945312 C 616.414062 279.945312 598.980469 279.945312 581.550781 279.945312 " fill-opacity="1" fill-rule="nonzero"/><path fill="#ffffff" d="M 581.496094 267.34375 L 581.496094 258.714844 C 598.929688 258.714844 616.363281 258.714844 633.796875 258.714844 C 633.796875 261.589844 633.796875 264.46875 633.796875 267.34375 C 616.363281 267.34375 598.929688 267.34375 581.496094 267.34375 " fill-opacity="1" fill-rule="nonzero"/><path fill="#ffffff" d="M 581.675781 254.578125 L 581.675781 245.949219 L 633.976562 245.949219 L 633.976562 254.578125 L 581.675781 254.578125 " fill-opacity="1" fill-rule="nonzero"/><g clip-path="url(#eedb0a707c)"><path fill="#ffffff" d="M 581.855469 241.996094 L 581.855469 233.367188 C 599.289062 233.367188 616.722656 233.367188 634.15625 233.367188 C 634.15625 236.242188 634.15625 239.117188 634.15625 241.996094 C 616.722656 241.996094 599.289062 241.996094 581.855469 241.996094 " fill-opacity="1" fill-rule="nonzero"/></g><g clip-path="url(#94d2b0a8d2)"><path fill="#ffffff" d="M 457.359375 357.289062 L 461.671875 357.289062 L 465.988281 357.292969 C 465.988281 374.722656 465.988281 392.15625 465.988281 409.589844 C 463.109375 409.589844 460.234375 409.589844 457.359375 409.589844 C 457.359375 392.15625 457.359375 374.722656 457.359375 357.289062 " fill-opacity="1" fill-rule="nonzero"/></g><g clip-path="url(#8755228583)"><path fill="#ffffff" d="M 470.121094 357.46875 L 478.75 357.472656 L 478.75 409.769531 L 470.121094 409.769531 L 470.121094 357.46875 " fill-opacity="1" fill-rule="nonzero"/></g><g clip-path="url(#bccbdc12fc)"><path fill="#ffffff" d="M 482.707031 357.648438 L 487.023438 357.648438 L 491.335938 357.652344 C 491.335938 375.082031 491.335938 392.515625 491.335938 409.949219 C 488.460938 409.949219 485.582031 409.949219 482.707031 409.949219 C 482.707031 392.515625 482.707031 375.082031 482.707031 357.648438 " fill-opacity="1" fill-rule="nonzero"/></g><g clip-path="url(#92bf5d9bf4)"><path fill="#ffffff" d="M 494.699219 357.597656 L 503.328125 357.597656 C 503.328125 375.03125 503.328125 392.464844 503.328125 409.894531 C 500.449219 409.894531 497.574219 409.894531 494.699219 409.894531 C 494.699219 392.464844 494.699219 375.03125 494.699219 357.597656 " fill-opacity="1" fill-rule="nonzero"/></g><g clip-path="url(#d38f8f1f1c)"><path fill="#ffffff" d="M 507.460938 357.777344 L 516.089844 357.777344 L 516.089844 410.074219 L 507.460938 410.074219 L 507.460938 357.777344 " fill-opacity="1" fill-rule="nonzero"/></g><g clip-path="url(#a4b046d59f)"><path fill="#ffffff" d="M 520.046875 357.957031 L 528.675781 357.957031 C 528.675781 375.390625 528.675781 392.824219 528.675781 410.253906 C 525.800781 410.253906 522.921875 410.253906 520.046875 410.253906 C 520.046875 392.824219 520.046875 375.390625 520.046875 357.957031 " fill-opacity="1" fill-rule="nonzero"/></g><g clip-path="url(#8e787273a3)"><path fill="#ffffff" d="M 532.648438 357.902344 L 541.277344 357.902344 C 541.277344 375.335938 541.277344 392.769531 541.277344 410.203125 C 538.402344 410.203125 535.523438 410.203125 532.648438 410.203125 C 532.648438 392.769531 532.648438 375.335938 532.648438 357.902344 " fill-opacity="1" fill-rule="nonzero"/></g><g clip-path="url(#a6a351566d)"><path fill="#ffffff" d="M 545.414062 358.082031 L 554.042969 358.082031 L 554.042969 410.382812 L 545.414062 410.382812 L 545.414062 358.082031 " fill-opacity="1" fill-rule="nonzero"/></g><g clip-path="url(#abc5aa2771)"><path fill="#ffffff" d="M 557.996094 358.261719 L 566.625 358.261719 C 566.625 375.695312 566.625 393.128906 566.625 410.5625 C 563.75 410.5625 560.875 410.5625 557.996094 410.5625 C 557.996094 393.128906 557.996094 375.695312 557.996094 358.261719 " fill-opacity="1" fill-rule="nonzero"/></g><g clip-path="url(#5f55560507)"><g clip-path="url(#b77d425fc1)"><g transform="matrix(1, 0, 0, 1, 442, 213)"><g clip-path="url(#5a367d0765)"><g clip-path="url(#bae43fae64)"><g clip-path="url(#c6587318a0)"><rect x="-667.39" width="1475.28" fill="#333333" height="829.44" y="-339.72" fill-opacity="1"/></g></g></g></g></g></g><g clip-path="url(#f3eeb645c2)"><g clip-path="url(#c5384fbf68)"><g transform="matrix(1, 0, 0, 1, 566, 280)"><g clip-path="url(#bb6d377ff8)"><g clip-path="url(#0cbb2ed42d)"><g clip-path="url(#1178394e7d)"><rect x="-791.39" width="1475.28" fill="#333333" height="829.44" y="-406.72" fill-opacity="1"/></g></g></g></g></g></g><g clip-path="url(#63f4f9e42c)"><g clip-path="url(#c6049542a7)"><g transform="matrix(1, 0, 0, 1, 498, 342)"><g clip-path="url(#6fb81cd829)"><g clip-path="url(#b36d6059a4)"><g clip-path="url(#23cc60b2a4)"><rect x="-723.39" width="1475.28" fill="#333333" height="829.44" y="-468.72" fill-opacity="1"/></g></g></g></g></g></g><g clip-path="url(#25e8fd2202)"><g clip-path="url(#5b91f21057)"><g transform="matrix(1, 0, 0, 1, 442, 283)"><g clip-path="url(#2dd899dec4)"><g clip-path="url(#b54920b3b1)"><g clip-path="url(#c0031b8a29)"><rect x="-667.39" width="1475.28" fill="#333333" height="829.44" y="-409.72" fill-opacity="1"/></g></g></g></g></g></g></svg>