<svg xmlns="http://www.w3.org/2000/svg" xmlns:xlink="http://www.w3.org/1999/xlink" width="500" zoomAndPan="magnify" viewBox="0 0 375 374.999991" height="500" preserveAspectRatio="xMidYMid meet" version="1.0"><defs><clipPath id="0f9efc4b4e"><path d="M 126.144531 31.332031 L 248.855469 31.332031 L 248.855469 343.871094 L 126.144531 343.871094 Z M 126.144531 31.332031 " clip-rule="nonzero"/></clipPath><clipPath id="fe4af7e256"><path d="M 146.394531 31.332031 L 228.605469 31.332031 C 233.976562 31.332031 239.128906 33.46875 242.925781 37.265625 C 246.722656 41.0625 248.855469 46.210938 248.855469 51.582031 L 248.855469 323.417969 C 248.855469 328.789062 246.722656 333.9375 242.925781 337.734375 C 239.128906 341.53125 233.976562 343.667969 228.605469 343.667969 L 146.394531 343.667969 C 141.023438 343.667969 135.871094 341.53125 132.074219 337.734375 C 128.277344 333.9375 126.144531 328.789062 126.144531 323.417969 L 126.144531 51.582031 C 126.144531 40.398438 135.210938 31.332031 146.394531 31.332031 Z M 146.394531 31.332031 " clip-rule="nonzero"/></clipPath><clipPath id="c280ec33c6"><path d="M 0.144531 0.332031 L 122.855469 0.332031 L 122.855469 312.679688 L 0.144531 312.679688 Z M 0.144531 0.332031 " clip-rule="nonzero"/></clipPath><clipPath id="72a1d444ee"><path d="M 20.394531 0.332031 L 102.605469 0.332031 C 107.976562 0.332031 113.128906 2.46875 116.925781 6.265625 C 120.722656 10.0625 122.855469 15.210938 122.855469 20.582031 L 122.855469 292.417969 C 122.855469 297.789062 120.722656 302.9375 116.925781 306.734375 C 113.128906 310.53125 107.976562 312.667969 102.605469 312.667969 L 20.394531 312.667969 C 15.023438 312.667969 9.871094 310.53125 6.074219 306.734375 C 2.277344 302.9375 0.144531 297.789062 0.144531 292.417969 L 0.144531 20.582031 C 0.144531 9.398438 9.210938 0.332031 20.394531 0.332031 Z M 20.394531 0.332031 " clip-rule="nonzero"/></clipPath><clipPath id="c250f5729a"><rect x="0" width="123" y="0" height="313"/></clipPath><clipPath id="43b718cfdd"><path d="M 148.308594 50.636719 L 226.691406 50.636719 L 226.691406 129.019531 L 148.308594 129.019531 Z M 148.308594 50.636719 " clip-rule="nonzero"/></clipPath><clipPath id="af265d17c1"><path d="M 187.5 50.636719 C 165.855469 50.636719 148.308594 68.183594 148.308594 89.828125 C 148.308594 111.472656 165.855469 129.019531 187.5 129.019531 C 209.144531 129.019531 226.691406 111.472656 226.691406 89.828125 C 226.691406 68.183594 209.144531 50.636719 187.5 50.636719 Z M 187.5 50.636719 " clip-rule="nonzero"/></clipPath><clipPath id="0c753e905a"><path d="M 0.308594 0.636719 L 78.691406 0.636719 L 78.691406 79.019531 L 0.308594 79.019531 Z M 0.308594 0.636719 " clip-rule="nonzero"/></clipPath><clipPath id="016f170521"><path d="M 39.5 0.636719 C 17.855469 0.636719 0.308594 18.183594 0.308594 39.828125 C 0.308594 61.472656 17.855469 79.019531 39.5 79.019531 C 61.144531 79.019531 78.691406 61.472656 78.691406 39.828125 C 78.691406 18.183594 61.144531 0.636719 39.5 0.636719 Z M 39.5 0.636719 " clip-rule="nonzero"/></clipPath><clipPath id="c90fe759a4"><rect x="0" width="79" y="0" height="80"/></clipPath><clipPath id="eaa632e36d"><path d="M 148.308594 50.636719 L 226.683594 50.636719 L 226.683594 129.011719 L 148.308594 129.011719 Z M 148.308594 50.636719 " clip-rule="nonzero"/></clipPath><clipPath id="48ca7579e8"><path d="M 187.496094 50.636719 C 165.851562 50.636719 148.308594 68.179688 148.308594 89.824219 C 148.308594 111.464844 165.851562 129.011719 187.496094 129.011719 C 209.136719 129.011719 226.683594 111.464844 226.683594 89.824219 C 226.683594 68.179688 209.136719 50.636719 187.496094 50.636719 Z M 187.496094 50.636719 " clip-rule="nonzero"/></clipPath><clipPath id="6dba00d548"><path d="M 148.308594 148.308594 L 226.691406 148.308594 L 226.691406 226.691406 L 148.308594 226.691406 Z M 148.308594 148.308594 " clip-rule="nonzero"/></clipPath><clipPath id="263ca1fac4"><path d="M 187.5 148.308594 C 165.855469 148.308594 148.308594 165.855469 148.308594 187.5 C 148.308594 209.144531 165.855469 226.691406 187.5 226.691406 C 209.144531 226.691406 226.691406 209.144531 226.691406 187.5 C 226.691406 165.855469 209.144531 148.308594 187.5 148.308594 Z M 187.5 148.308594 " clip-rule="nonzero"/></clipPath><clipPath id="1ee7ca5f05"><path d="M 0.308594 0.308594 L 78.691406 0.308594 L 78.691406 78.691406 L 0.308594 78.691406 Z M 0.308594 0.308594 " clip-rule="nonzero"/></clipPath><clipPath id="875bb920e0"><path d="M 39.5 0.308594 C 17.855469 0.308594 0.308594 17.855469 0.308594 39.5 C 0.308594 61.144531 17.855469 78.691406 39.5 78.691406 C 61.144531 78.691406 78.691406 61.144531 78.691406 39.5 C 78.691406 17.855469 61.144531 0.308594 39.5 0.308594 Z M 39.5 0.308594 " clip-rule="nonzero"/></clipPath><clipPath id="43a8675950"><rect x="0" width="79" y="0" height="79"/></clipPath><clipPath id="698b423099"><path d="M 148.308594 148.308594 L 226.683594 148.308594 L 226.683594 226.683594 L 148.308594 226.683594 Z M 148.308594 148.308594 " clip-rule="nonzero"/></clipPath><clipPath id="781aab6d47"><path d="M 187.496094 148.308594 C 165.851562 148.308594 148.308594 165.851562 148.308594 187.496094 C 148.308594 209.136719 165.851562 226.683594 187.496094 226.683594 C 209.136719 226.683594 226.683594 209.136719 226.683594 187.496094 C 226.683594 165.851562 209.136719 148.308594 187.496094 148.308594 Z M 187.496094 148.308594 " clip-rule="nonzero"/></clipPath><clipPath id="39d56edeef"><path d="M 148.308594 246.191406 L 226.691406 246.191406 L 226.691406 324.574219 L 148.308594 324.574219 Z M 148.308594 246.191406 " clip-rule="nonzero"/></clipPath><clipPath id="e421866a07"><path d="M 187.5 246.191406 C 165.855469 246.191406 148.308594 263.738281 148.308594 285.382812 C 148.308594 307.027344 165.855469 324.574219 187.5 324.574219 C 209.144531 324.574219 226.691406 307.027344 226.691406 285.382812 C 226.691406 263.738281 209.144531 246.191406 187.5 246.191406 Z M 187.5 246.191406 " clip-rule="nonzero"/></clipPath><clipPath id="51a5c72993"><path d="M 0.308594 0.191406 L 78.691406 0.191406 L 78.691406 78.574219 L 0.308594 78.574219 Z M 0.308594 0.191406 " clip-rule="nonzero"/></clipPath><clipPath id="6991fb7ff6"><path d="M 39.5 0.191406 C 17.855469 0.191406 0.308594 17.738281 0.308594 39.382812 C 0.308594 61.027344 17.855469 78.574219 39.5 78.574219 C 61.144531 78.574219 78.691406 61.027344 78.691406 39.382812 C 78.691406 17.738281 61.144531 0.191406 39.5 0.191406 Z M 39.5 0.191406 " clip-rule="nonzero"/></clipPath><clipPath id="bf538ded96"><rect x="0" width="79" y="0" height="79"/></clipPath><clipPath id="fbb7f17b14"><path d="M 148.308594 246.191406 L 226.683594 246.191406 L 226.683594 324.566406 L 148.308594 324.566406 Z M 148.308594 246.191406 " clip-rule="nonzero"/></clipPath><clipPath id="8f5a39b260"><path d="M 187.496094 246.191406 C 165.851562 246.191406 148.308594 263.738281 148.308594 285.378906 C 148.308594 307.023438 165.851562 324.566406 187.496094 324.566406 C 209.136719 324.566406 226.683594 307.023438 226.683594 285.378906 C 226.683594 263.738281 209.136719 246.191406 187.496094 246.191406 Z M 187.496094 246.191406 " clip-rule="nonzero"/></clipPath><clipPath id="ca3b616243"><path d="M 112.5 17 L 262.5 17 L 262.5 45.488281 L 112.5 45.488281 Z M 112.5 17 " clip-rule="nonzero"/></clipPath><clipPath id="9c901fcd7b"><path d="M 112.5 31.332031 C 112.5 39.253906 118.921875 45.675781 126.84375 45.675781 L 248.15625 45.675781 C 256.078125 45.675781 262.5 39.253906 262.5 31.332031 C 262.5 23.410156 256.078125 16.988281 248.15625 16.988281 L 126.84375 16.988281 C 118.921875 16.988281 112.5 23.410156 112.5 31.332031 Z M 112.5 31.332031 " clip-rule="nonzero"/></clipPath></defs><g clip-path="url(#0f9efc4b4e)"><g clip-path="url(#fe4af7e256)"><g transform="matrix(1, 0, 0, 1, 126, 31)"><g clip-path="url(#c250f5729a)"><g clip-path="url(#c280ec33c6)"><g clip-path="url(#72a1d444ee)"><path fill="#545454" d="M 0.144531 0.332031 L 122.855469 0.332031 L 122.855469 312.871094 L 0.144531 312.871094 Z M 0.144531 0.332031 " fill-opacity="1" fill-rule="nonzero"/></g></g></g></g></g></g><g clip-path="url(#43b718cfdd)"><g clip-path="url(#af265d17c1)"><g transform="matrix(1, 0, 0, 1, 148, 50)"><g clip-path="url(#c90fe759a4)"><g clip-path="url(#0c753e905a)"><g clip-path="url(#016f170521)"><path fill="#a6a6a6" d="M 0.308594 0.636719 L 78.691406 0.636719 L 78.691406 79.019531 L 0.308594 79.019531 Z M 0.308594 0.636719 " fill-opacity="1" fill-rule="nonzero"/></g></g></g></g></g></g><g clip-path="url(#eaa632e36d)"><g clip-path="url(#48ca7579e8)"><path fill="#000000" d="M 173.023438 55.828125 C 169.085938 57.507812 165.539062 59.808594 162.382812 62.734375 L 159.324219 59.4375 C 162.859375 56.15625 166.839844 53.574219 171.257812 51.691406 Z M 160.871094 64.222656 C 157.890625 67.320312 155.523438 70.824219 153.773438 74.730469 L 149.667969 72.886719 C 151.632812 68.503906 154.285156 64.578125 157.625 61.101562 Z M 152.964844 76.683594 C 151.441406 80.675781 150.644531 84.828125 150.566406 89.136719 L 146.066406 89.054688 C 146.152344 84.222656 147.050781 79.566406 148.757812 75.082031 Z M 150.585938 91.296875 C 150.753906 95.59375 151.640625 99.71875 153.242188 103.679688 L 149.074219 105.367188 C 147.273438 100.921875 146.28125 96.292969 146.089844 91.472656 Z M 154.097656 105.625 C 155.929688 109.492188 158.371094 112.941406 161.410156 115.976562 L 158.234375 119.164062 C 154.824219 115.761719 152.089844 111.890625 150.03125 107.550781 Z M 162.957031 117.433594 C 166.167969 120.289062 169.761719 122.515625 173.730469 124.113281 L 172.054688 128.289062 C 167.597656 126.496094 163.570312 124 159.964844 120.796875 Z M 175.710938 124.84375 C 179.515625 126.121094 183.441406 126.761719 187.496094 126.761719 C 187.757812 126.761719 188.023438 126.757812 188.285156 126.753906 L 188.378906 131.253906 C 188.085938 131.257812 187.789062 131.261719 187.496094 131.261719 C 182.953125 131.261719 178.546875 130.542969 174.277344 129.109375 Z M 190.429688 126.648438 C 194.703125 126.3125 198.789062 125.265625 202.679688 123.507812 L 204.535156 127.605469 C 200.164062 129.582031 195.578125 130.757812 190.78125 131.132812 Z M 204.59375 122.574219 C 208.386719 120.589844 211.738281 118.019531 214.652344 114.863281 L 217.960938 117.914062 C 214.695312 121.453125 210.933594 124.335938 206.679688 126.5625 Z M 216.046875 113.261719 C 218.773438 109.941406 220.855469 106.269531 222.292969 102.242188 L 226.53125 103.753906 C 224.917969 108.273438 222.582031 112.394531 219.523438 116.121094 Z M 222.949219 100.226562 C 223.9375 96.847656 224.433594 93.378906 224.433594 89.824219 C 224.433594 89.070312 224.410156 88.320312 224.367188 87.570312 L 228.859375 87.300781 C 228.90625 88.136719 228.933594 88.980469 228.933594 89.824219 C 228.933594 93.8125 228.378906 97.699219 227.265625 101.492188 Z M 224.175781 85.449219 C 223.675781 81.195312 222.46875 77.152344 220.554688 73.328125 L 224.578125 71.3125 C 226.726562 75.609375 228.082031 80.144531 228.644531 84.921875 Z M 219.550781 71.457031 C 217.417969 67.742188 214.71875 64.492188 211.453125 61.707031 L 214.371094 58.285156 C 218.035156 61.40625 221.058594 65.050781 223.453125 69.214844 Z M 209.796875 60.375 C 206.375 57.78125 202.625 55.84375 198.546875 54.566406 L 199.890625 50.273438 C 204.46875 51.707031 208.675781 53.878906 212.515625 56.789062 Z M 196.496094 53.988281 C 193.558594 53.253906 190.558594 52.886719 187.496094 52.886719 C 183.179688 52.886719 179.007812 53.609375 174.984375 55.058594 L 173.460938 50.824219 C 177.976562 49.199219 182.65625 48.386719 187.496094 48.386719 C 190.925781 48.386719 194.289062 48.800781 197.589844 49.625 Z M 196.496094 53.988281 " fill-opacity="1" fill-rule="nonzero"/></g></g><g clip-path="url(#6dba00d548)"><g clip-path="url(#263ca1fac4)"><g transform="matrix(1, 0, 0, 1, 148, 148)"><g clip-path="url(#43a8675950)"><g clip-path="url(#1ee7ca5f05)"><g clip-path="url(#875bb920e0)"><path fill="#a6a6a6" d="M 0.308594 0.308594 L 78.691406 0.308594 L 78.691406 78.691406 L 0.308594 78.691406 Z M 0.308594 0.308594 " fill-opacity="1" fill-rule="nonzero"/></g></g></g></g></g></g><g clip-path="url(#698b423099)"><g clip-path="url(#781aab6d47)"><path fill="#000000" d="M 173.023438 153.5 C 169.085938 155.179688 165.539062 157.480469 162.382812 160.40625 L 159.324219 157.109375 C 162.859375 153.828125 166.839844 151.246094 171.257812 149.363281 Z M 160.871094 161.894531 C 157.890625 164.992188 155.523438 168.496094 153.773438 172.402344 L 149.667969 170.558594 C 151.632812 166.175781 154.285156 162.25 157.625 158.773438 Z M 152.964844 174.355469 C 151.441406 178.347656 150.644531 182.5 150.566406 186.808594 L 146.066406 186.726562 C 146.152344 181.894531 147.050781 177.238281 148.757812 172.753906 Z M 150.585938 188.96875 C 150.753906 193.265625 151.640625 197.390625 153.242188 201.351562 L 149.074219 203.039062 C 147.273438 198.59375 146.28125 193.964844 146.089844 189.144531 Z M 154.097656 203.296875 C 155.929688 207.164062 158.371094 210.613281 161.410156 213.648438 L 158.234375 216.835938 C 154.824219 213.433594 152.089844 209.5625 150.03125 205.222656 Z M 162.957031 215.105469 C 166.167969 217.960938 169.761719 220.1875 173.730469 221.785156 L 172.054688 225.960938 C 167.597656 224.167969 163.570312 221.671875 159.964844 218.46875 Z M 175.710938 222.515625 C 179.515625 223.792969 183.441406 224.433594 187.496094 224.433594 C 187.757812 224.433594 188.023438 224.429688 188.285156 224.425781 L 188.378906 228.925781 C 188.085938 228.929688 187.789062 228.933594 187.496094 228.933594 C 182.953125 228.933594 178.546875 228.214844 174.277344 226.78125 Z M 190.429688 224.320312 C 194.703125 223.984375 198.789062 222.9375 202.679688 221.179688 L 204.535156 225.277344 C 200.164062 227.253906 195.578125 228.429688 190.78125 228.804688 Z M 204.59375 220.246094 C 208.386719 218.261719 211.738281 215.691406 214.652344 212.535156 L 217.960938 215.585938 C 214.695312 219.125 210.933594 222.007812 206.679688 224.234375 Z M 216.046875 210.933594 C 218.773438 207.613281 220.855469 203.941406 222.292969 199.914062 L 226.53125 201.425781 C 224.917969 205.945312 222.582031 210.066406 219.523438 213.792969 Z M 222.949219 197.898438 C 223.9375 194.519531 224.433594 191.050781 224.433594 187.496094 C 224.433594 186.742188 224.410156 185.992188 224.367188 185.242188 L 228.859375 184.972656 C 228.90625 185.808594 228.933594 186.652344 228.933594 187.496094 C 228.933594 191.484375 228.378906 195.371094 227.265625 199.164062 Z M 224.175781 183.121094 C 223.675781 178.867188 222.46875 174.824219 220.554688 171 L 224.578125 168.984375 C 226.726562 173.28125 228.082031 177.816406 228.644531 182.59375 Z M 219.550781 169.128906 C 217.417969 165.414062 214.71875 162.164062 211.453125 159.378906 L 214.371094 155.957031 C 218.035156 159.078125 221.058594 162.722656 223.453125 166.886719 Z M 209.796875 158.046875 C 206.375 155.453125 202.625 153.515625 198.546875 152.238281 L 199.890625 147.945312 C 204.46875 149.378906 208.675781 151.550781 212.515625 154.460938 Z M 196.496094 151.664062 C 193.558594 150.925781 190.558594 150.558594 187.496094 150.558594 C 183.179688 150.558594 179.007812 151.28125 174.984375 152.730469 L 173.460938 148.496094 C 177.976562 146.871094 182.65625 146.058594 187.496094 146.058594 C 190.925781 146.058594 194.289062 146.472656 197.589844 147.296875 Z M 196.496094 151.664062 " fill-opacity="1" fill-rule="nonzero"/></g></g><g clip-path="url(#39d56edeef)"><g clip-path="url(#e421866a07)"><g transform="matrix(1, 0, 0, 1, 148, 246)"><g clip-path="url(#bf538ded96)"><g clip-path="url(#51a5c72993)"><g clip-path="url(#6991fb7ff6)"><path fill="#00bf63" d="M 0.308594 0.191406 L 78.691406 0.191406 L 78.691406 78.574219 L 0.308594 78.574219 Z M 0.308594 0.191406 " fill-opacity="1" fill-rule="nonzero"/></g></g></g></g></g></g><g clip-path="url(#fbb7f17b14)"><g clip-path="url(#8f5a39b260)"><path fill="#000000" d="M 173.023438 251.382812 C 169.085938 253.0625 165.539062 255.367188 162.382812 258.289062 L 159.324219 254.992188 C 162.859375 251.710938 166.839844 249.128906 171.257812 247.246094 Z M 160.871094 259.777344 C 157.890625 262.875 155.523438 266.378906 153.773438 270.285156 L 149.667969 268.441406 C 151.632812 264.0625 154.285156 260.132812 157.625 256.65625 Z M 152.964844 272.238281 C 151.441406 276.230469 150.644531 280.382812 150.566406 284.691406 L 146.066406 284.609375 C 146.152344 279.777344 147.050781 275.121094 148.757812 270.636719 Z M 150.585938 286.851562 C 150.753906 291.148438 151.640625 295.273438 153.242188 299.234375 L 149.074219 300.921875 C 147.273438 296.480469 146.28125 291.847656 146.089844 287.027344 Z M 154.097656 301.179688 C 155.929688 305.046875 158.371094 308.496094 161.410156 311.53125 L 158.234375 314.71875 C 154.824219 311.316406 152.089844 307.445312 150.03125 303.105469 Z M 162.957031 312.988281 C 166.167969 315.84375 169.761719 318.070312 173.730469 319.667969 L 172.054688 323.84375 C 167.597656 322.054688 163.570312 319.554688 159.964844 316.351562 Z M 175.710938 320.398438 C 179.515625 321.675781 183.441406 322.316406 187.496094 322.316406 C 187.757812 322.316406 188.023438 322.3125 188.285156 322.308594 L 188.378906 326.808594 C 188.085938 326.8125 187.789062 326.816406 187.496094 326.816406 C 182.953125 326.816406 178.546875 326.097656 174.277344 324.664062 Z M 190.429688 322.203125 C 194.703125 321.867188 198.789062 320.820312 202.679688 319.0625 L 204.535156 323.164062 C 200.164062 325.136719 195.578125 326.3125 190.78125 326.6875 Z M 204.59375 318.128906 C 208.386719 316.144531 211.738281 313.574219 214.652344 310.417969 L 217.960938 313.46875 C 214.695312 317.007812 210.933594 319.890625 206.679688 322.117188 Z M 216.046875 308.816406 C 218.773438 305.5 220.855469 301.824219 222.292969 297.796875 L 226.53125 299.3125 C 224.917969 303.832031 222.582031 307.953125 219.523438 311.675781 Z M 222.949219 295.78125 C 223.9375 292.402344 224.433594 288.9375 224.433594 285.378906 C 224.433594 284.625 224.410156 283.875 224.367188 283.125 L 228.859375 282.855469 C 228.90625 283.695312 228.933594 284.535156 228.933594 285.378906 C 228.933594 289.367188 228.378906 293.257812 227.265625 297.046875 Z M 224.175781 281.003906 C 223.675781 276.75 222.46875 272.707031 220.554688 268.882812 L 224.578125 266.867188 C 226.726562 271.164062 228.082031 275.703125 228.644531 280.476562 Z M 219.550781 267.011719 C 217.417969 263.296875 214.71875 260.046875 211.453125 257.261719 L 214.371094 253.839844 C 218.035156 256.960938 221.058594 260.605469 223.453125 264.769531 Z M 209.796875 255.929688 C 206.375 253.335938 202.625 251.398438 198.546875 250.121094 L 199.890625 245.828125 C 204.46875 247.261719 208.675781 249.433594 212.515625 252.34375 Z M 196.496094 249.546875 C 193.558594 248.808594 190.558594 248.441406 187.496094 248.441406 C 183.179688 248.441406 179.007812 249.164062 174.984375 250.613281 L 173.460938 246.378906 C 177.976562 244.753906 182.65625 243.941406 187.496094 243.941406 C 190.925781 243.941406 194.289062 244.355469 197.589844 245.179688 Z M 196.496094 249.546875 " fill-opacity="1" fill-rule="nonzero"/></g></g><g clip-path="url(#ca3b616243)"><g clip-path="url(#9c901fcd7b)"><path fill="#2d2a2a" d="M 262.5 45.652344 L 112.5 45.652344 L 122.605469 22.261719 C 122.941406 21.484375 123.382812 20.769531 123.929688 20.117188 C 124.476562 19.46875 125.105469 18.910156 125.816406 18.445312 C 126.523438 17.976562 127.285156 17.621094 128.097656 17.378906 C 128.914062 17.136719 129.746094 17.015625 130.59375 17.015625 L 243.996094 17.015625 C 244.835938 17.015625 245.65625 17.132812 246.460938 17.371094 C 247.265625 17.605469 248.019531 17.953125 248.722656 18.410156 C 249.425781 18.863281 250.050781 19.410156 250.597656 20.046875 C 251.144531 20.683594 251.589844 21.382812 251.933594 22.148438 Z M 262.5 45.652344 " fill-opacity="1" fill-rule="nonzero"/></g></g></svg>